<?xml version="1.0" encoding="utf-8" standalone="no"?>
<!DOCTYPE svg PUBLIC "-//W3C//DTD SVG 1.1//EN"
  "http://www.w3.org/Graphics/SVG/1.1/DTD/svg11.dtd">
<!-- Created with matplotlib (http://matplotlib.org/) -->
<svg height="288pt" version="1.1" viewBox="0 0 576 288" width="576pt" xmlns="http://www.w3.org/2000/svg" xmlns:xlink="http://www.w3.org/1999/xlink">
 <defs>
  <style type="text/css">
*{stroke-linecap:butt;stroke-linejoin:round;}
  </style>
 </defs>
 <g id="figure_1">
  <g id="patch_1">
   <path d="M 0 288 
L 576 288 
L 576 0 
L 0 0 
z
" style="fill:#ffffff;"/>
  </g>
  <g id="axes_1">
   <g id="patch_2">
    <path d="M 72 252 
L 518.4 252 
L 518.4 34.56 
L 72 34.56 
z
" style="fill:#ffffff;"/>
   </g>
   <g id="patch_3">
    <path clip-path="url(#p8d55800723)" d="M 92.290909 252 
L 92.290909 249.590378 
L 93.102545 249.590378 
L 93.102545 247.298876 
L 93.914182 247.298876 
L 93.914182 245.597966 
L 94.725818 245.597966 
L 94.725818 244.062423 
L 95.537455 244.062423 
L 95.537455 242.833988 
L 96.349091 242.833988 
L 96.349091 239.928268 
L 97.160727 239.928268 
L 97.160727 238.959695 
L 97.972364 238.959695 
L 97.972364 238.180111 
L 98.784 238.180111 
L 98.784 237.849379 
L 99.595636 237.849379 
L 99.595636 237.376904 
L 100.407273 237.376904 
L 100.407273 236.52645 
L 101.218909 236.52645 
L 101.218909 235.888609 
L 102.030545 235.888609 
L 102.030545 235.179896 
L 102.842182 235.179896 
L 102.842182 234.400313 
L 103.653818 234.400313 
L 103.653818 233.43174 
L 104.465455 233.43174 
L 104.465455 231.376474 
L 105.277091 231.376474 
L 105.277091 230.266158 
L 106.088727 230.266158 
L 106.088727 229.297585 
L 106.900364 229.297585 
L 106.900364 228.234516 
L 107.712 228.234516 
L 107.712 227.218696 
L 108.523636 227.218696 
L 108.523636 225.35242 
L 109.335273 225.35242 
L 109.335273 224.903569 
L 110.146909 224.903569 
L 110.146909 224.053114 
L 110.958545 224.053114 
L 110.958545 223.01367 
L 111.770182 223.01367 
L 111.770182 222.541195 
L 112.581818 222.541195 
L 112.581818 221.336384 
L 113.393455 221.336384 
L 113.393455 220.840286 
L 114.205091 220.840286 
L 114.205091 220.604048 
L 115.016727 220.604048 
L 115.016727 220.131573 
L 115.828364 220.131573 
L 115.828364 219.517356 
L 116.64 219.517356 
L 116.64 218.005437 
L 117.451636 218.005437 
L 117.451636 217.249477 
L 118.263273 217.249477 
L 118.263273 216.517141 
L 119.074909 216.517141 
L 119.074909 215.855676 
L 119.886545 215.855676 
L 119.886545 215.146964 
L 120.698182 215.146964 
L 120.698182 213.847658 
L 121.509818 213.847658 
L 121.509818 213.091698 
L 122.321455 213.091698 
L 122.321455 212.619224 
L 123.133091 212.619224 
L 123.133091 211.745145 
L 123.944727 211.745145 
L 123.944727 210.941938 
L 124.756364 210.941938 
L 124.756364 209.642632 
L 125.568 209.642632 
L 125.568 209.075662 
L 126.379636 209.075662 
L 126.379636 208.17796 
L 127.191273 208.17796 
L 127.191273 207.752733 
L 128.002909 207.752733 
L 128.002909 207.327506 
L 128.814545 207.327506 
L 128.814545 206.122695 
L 129.626182 206.122695 
L 129.626182 205.815586 
L 130.437818 205.815586 
L 130.437818 205.366735 
L 131.249455 205.366735 
L 131.249455 204.799765 
L 132.061091 204.799765 
L 132.061091 203.736697 
L 132.872727 203.736697 
L 132.872727 201.941293 
L 133.684364 201.941293 
L 133.684364 201.279828 
L 134.496 201.279828 
L 134.496 200.830977 
L 135.307636 200.830977 
L 135.307636 200.264007 
L 136.119273 200.264007 
L 136.119273 199.697037 
L 136.930909 199.697037 
L 136.930909 198.255989 
L 137.742545 198.255989 
L 137.742545 197.381911 
L 138.554182 197.381911 
L 138.554182 195.940862 
L 139.365818 195.940862 
L 139.365818 194.381696 
L 140.177455 194.381696 
L 140.177455 193.365875 
L 140.989091 193.365875 
L 140.989091 191.688589 
L 141.800727 191.688589 
L 141.800727 190.956253 
L 142.612364 190.956253 
L 142.612364 190.294788 
L 143.424 190.294788 
L 143.424 189.586076 
L 144.235636 189.586076 
L 144.235636 188.948235 
L 145.047273 188.948235 
L 145.047273 187.885167 
L 145.858909 187.885167 
L 145.858909 186.963841 
L 146.670545 186.963841 
L 146.670545 186.184257 
L 147.482182 186.184257 
L 147.482182 185.877149 
L 148.293818 185.877149 
L 148.293818 185.451921 
L 149.105455 185.451921 
L 149.105455 184.672338 
L 149.917091 184.672338 
L 149.917091 184.412477 
L 150.728727 184.412477 
L 150.728727 184.128992 
L 151.540364 184.128992 
L 151.540364 183.821883 
L 152.352 183.821883 
L 152.352 183.538398 
L 153.163636 183.538398 
L 153.163636 183.0423 
L 153.975273 183.0423 
L 153.975273 182.924181 
L 154.786909 182.924181 
L 154.786909 182.782439 
L 155.598545 182.782439 
L 155.598545 182.617072 
L 156.410182 182.617072 
L 156.410182 182.404459 
L 157.221818 182.404459 
L 157.221818 181.766618 
L 158.845091 181.71937 
L 158.845091 181.388638 
L 159.656727 181.388638 
L 159.656727 180.939787 
L 160.468364 180.939787 
L 160.468364 180.160203 
L 161.28 180.160203 
L 161.28 179.238877 
L 162.091636 179.238877 
L 162.091636 178.695531 
L 162.903273 178.695531 
L 162.903273 178.388423 
L 163.714909 178.388423 
L 163.714909 178.104938 
L 164.526545 178.104938 
L 164.526545 177.254483 
L 165.338182 177.254483 
L 165.338182 176.356781 
L 166.149818 176.356781 
L 166.149818 175.978801 
L 166.961455 175.978801 
L 166.961455 175.506326 
L 167.773091 175.506326 
L 167.773091 175.317336 
L 168.584727 175.317336 
L 168.584727 175.081099 
L 169.396364 175.081099 
L 169.396364 174.561377 
L 170.208 174.561377 
L 170.208 174.419634 
L 171.019636 174.419634 
L 171.019636 173.899912 
L 171.831273 173.899912 
L 171.831273 173.521932 
L 172.642909 173.521932 
L 172.642909 173.120329 
L 173.454545 173.120329 
L 173.454545 172.458864 
L 174.266182 172.458864 
L 174.266182 172.104508 
L 175.077818 172.104508 
L 175.077818 171.513914 
L 175.889455 171.513914 
L 175.889455 171.135934 
L 176.701091 171.135934 
L 176.701091 170.734331 
L 177.512727 170.734331 
L 177.512727 169.71851 
L 178.324364 169.71851 
L 178.324364 169.293282 
L 179.136 169.293282 
L 179.136 168.58457 
L 179.947636 168.58457 
L 179.947636 167.804987 
L 180.759273 167.804987 
L 180.759273 167.143522 
L 181.570909 167.143522 
L 181.570909 166.387562 
L 182.382545 166.387562 
L 182.382545 165.584355 
L 183.194182 165.584355 
L 183.194182 164.852019 
L 184.005818 164.852019 
L 184.005818 164.379544 
L 184.817455 164.379544 
L 184.817455 163.812575 
L 185.629091 163.812575 
L 185.629091 162.985744 
L 186.440727 162.985744 
L 186.440727 162.607764 
L 187.252364 162.607764 
L 187.252364 162.418774 
L 188.064 162.418774 
L 188.064 162.229784 
L 188.875636 162.229784 
L 188.875636 161.899052 
L 189.687273 161.899052 
L 189.687273 161.332082 
L 190.498909 161.332082 
L 190.498909 160.552498 
L 191.310545 160.552498 
L 191.310545 160.127271 
L 192.122182 160.127271 
L 192.122182 159.891034 
L 192.933818 159.891034 
L 192.933818 159.442182 
L 193.745455 159.442182 
L 193.745455 158.568104 
L 194.557091 158.568104 
L 194.557091 158.237372 
L 195.368727 158.237372 
L 195.368727 158.095629 
L 196.180364 158.095629 
L 196.180364 157.646778 
L 196.992 157.646778 
L 196.992 157.316046 
L 197.803636 157.316046 
L 197.803636 156.796323 
L 198.615273 156.796323 
L 198.615273 156.441967 
L 199.426909 156.441967 
L 199.426909 156.20573 
L 200.238545 156.20573 
L 200.238545 156.063987 
L 201.050182 156.063987 
L 201.050182 155.686008 
L 201.861818 155.686008 
L 201.861818 154.646563 
L 202.673455 154.646563 
L 202.673455 153.536247 
L 203.485091 153.536247 
L 203.485091 153.323634 
L 204.296727 153.323634 
L 204.296727 152.992901 
L 205.108364 152.992901 
L 205.108364 152.685793 
L 205.92 152.685793 
L 205.92 151.386487 
L 206.731636 151.386487 
L 206.731636 150.795893 
L 207.543273 150.795893 
L 207.543273 150.488785 
L 208.354909 150.488785 
L 208.354909 149.803696 
L 209.166545 149.803696 
L 209.166545 149.024113 
L 209.978182 149.024113 
L 209.978182 146.897976 
L 210.789818 146.897976 
L 210.789818 146.023898 
L 211.601455 146.023898 
L 211.601455 145.622294 
L 212.413091 145.622294 
L 212.413091 144.937205 
L 213.224727 144.937205 
L 213.224727 144.582849 
L 214.036364 144.582849 
L 214.036364 143.378039 
L 214.848 143.378039 
L 214.848 142.574831 
L 215.659636 142.574831 
L 215.659636 141.93699 
L 216.471273 141.93699 
L 216.471273 141.440892 
L 217.282909 141.440892 
L 217.282909 140.637685 
L 218.094545 140.637685 
L 218.094545 139.503745 
L 218.906182 139.503745 
L 218.906182 138.984023 
L 219.717818 138.984023 
L 219.717818 138.487924 
L 220.529455 138.487924 
L 220.529455 137.353985 
L 221.341091 137.353985 
L 221.341091 136.574401 
L 222.152727 136.574401 
L 222.152727 135.156977 
L 222.964364 135.156977 
L 222.964364 133.834047 
L 223.776 133.834047 
L 223.776 132.770979 
L 224.587636 132.770979 
L 224.587636 131.967772 
L 225.399273 131.967772 
L 225.399273 130.786585 
L 226.210909 130.786585 
L 226.210909 128.896685 
L 227.022545 128.896685 
L 227.022545 127.526508 
L 227.834182 127.526508 
L 227.834182 126.179955 
L 228.645818 126.179955 
L 228.645818 125.376748 
L 229.457455 125.376748 
L 229.457455 124.266432 
L 230.269091 124.266432 
L 230.269091 122.352909 
L 231.080727 122.352909 
L 231.080727 121.455207 
L 231.892364 121.455207 
L 231.892364 119.754297 
L 232.704 119.754297 
L 232.704 118.832972 
L 233.515636 118.832972 
L 233.515636 117.888022 
L 234.327273 117.888022 
L 234.327273 116.352479 
L 235.138909 116.352479 
L 235.138909 115.242163 
L 235.950545 115.242163 
L 235.950545 114.415332 
L 236.762182 114.415332 
L 236.762182 113.70662 
L 237.573818 113.70662 
L 237.573818 112.997907 
L 238.385455 112.997907 
L 238.385455 111.296998 
L 239.197091 111.296998 
L 239.197091 110.304801 
L 240.008727 110.304801 
L 240.008727 109.501594 
L 240.820364 109.501594 
L 240.820364 108.698387 
L 241.632 108.698387 
L 241.632 108.013298 
L 242.443636 108.013298 
L 242.443636 106.737616 
L 243.255273 106.737616 
L 243.255273 106.19427 
L 244.066909 106.19427 
L 244.066909 105.343815 
L 244.878545 105.343815 
L 244.878545 104.918588 
L 245.690182 104.918588 
L 245.690182 104.304371 
L 246.501818 104.304371 
L 246.501818 103.075936 
L 247.313455 103.075936 
L 247.313455 102.390848 
L 248.125091 102.390848 
L 248.125091 101.398651 
L 248.936727 101.398651 
L 248.936727 100.595443 
L 249.748364 100.595443 
L 249.748364 100.075721 
L 250.56 100.075721 
L 250.56 98.965405 
L 251.371636 98.965405 
L 251.371636 98.209446 
L 252.183273 98.209446 
L 252.183273 97.784218 
L 252.994909 97.784218 
L 252.994909 97.170001 
L 253.806545 97.170001 
L 253.806545 96.579407 
L 254.618182 96.579407 
L 254.618182 95.043864 
L 255.429818 95.043864 
L 255.429818 94.358776 
L 256.241455 94.358776 
L 256.241455 93.768182 
L 257.053091 93.768182 
L 257.053091 93.177589 
L 257.864727 93.177589 
L 257.864727 92.516124 
L 258.676364 92.516124 
L 258.676364 91.807412 
L 259.488 91.807412 
L 259.488 91.476679 
L 260.299636 91.476679 
L 260.299636 91.027828 
L 261.111273 91.027828 
L 261.111273 90.767967 
L 261.922909 90.767967 
L 261.922909 90.200997 
L 262.734545 90.200997 
L 262.734545 89.185176 
L 263.546182 89.185176 
L 263.546182 88.925315 
L 264.357818 88.925315 
L 264.357818 88.429217 
L 265.169455 88.429217 
L 265.169455 87.720505 
L 265.981091 87.720505 
L 265.981091 87.153535 
L 266.792727 87.153535 
L 266.792727 86.350328 
L 267.604364 86.350328 
L 267.604364 85.901476 
L 268.416 85.901476 
L 268.416 85.310883 
L 269.227636 85.310883 
L 269.227636 84.649418 
L 270.039273 84.649418 
L 270.039273 83.987953 
L 270.850909 83.987953 
L 270.850909 82.546905 
L 271.662545 82.546905 
L 271.662545 82.050807 
L 272.474182 82.050807 
L 272.474182 81.460213 
L 273.285818 81.460213 
L 273.285818 80.845996 
L 274.097455 80.845996 
L 274.097455 80.49164 
L 274.909091 80.49164 
L 274.909091 79.617561 
L 275.720727 79.617561 
L 275.720727 79.192334 
L 276.532364 79.192334 
L 276.532364 78.743483 
L 277.344 78.743483 
L 277.344 78.294632 
L 278.155636 78.294632 
L 278.155636 77.609543 
L 278.967273 77.609543 
L 278.967273 76.806336 
L 279.778909 76.806336 
L 279.778909 76.475604 
L 280.590545 76.475604 
L 280.590545 76.050376 
L 281.402182 76.050376 
L 281.402182 75.625149 
L 282.213818 75.625149 
L 282.213818 75.152674 
L 283.025455 75.152674 
L 283.025455 74.349467 
L 283.837091 74.349467 
L 283.837091 73.711626 
L 284.648727 73.711626 
L 284.648727 73.380894 
L 285.460364 73.380894 
L 285.460364 72.97929 
L 286.272 72.97929 
L 286.272 72.695805 
L 287.083636 72.695805 
L 287.083636 72.105212 
L 287.895273 72.105212 
L 287.895273 71.798103 
L 288.706909 71.798103 
L 288.706909 71.656361 
L 289.518545 71.656361 
L 289.518545 71.278381 
L 290.330182 71.278381 
L 290.330182 70.947648 
L 291.141818 70.947648 
L 291.141818 70.238936 
L 291.953455 70.238936 
L 291.953455 70.026322 
L 292.765091 70.026322 
L 292.765091 69.553848 
L 293.576727 69.553848 
L 293.576727 69.175868 
L 294.388364 69.175868 
L 294.388364 68.845135 
L 295.2 68.845135 
L 295.2 68.136423 
L 296.011636 68.136423 
L 296.011636 67.663948 
L 296.823273 67.663948 
L 296.823273 67.54583 
L 297.634909 67.54583 
L 297.634909 67.16785 
L 298.446545 67.16785 
L 298.446545 66.907989 
L 299.258182 66.907989 
L 299.258182 66.459138 
L 300.069818 66.459138 
L 300.069818 66.104781 
L 300.881455 66.104781 
L 300.881455 65.703178 
L 301.693091 65.703178 
L 301.693091 65.301574 
L 302.504727 65.301574 
L 302.504727 64.852723 
L 303.316364 64.852723 
L 303.316364 64.26213 
L 304.128 64.26213 
L 304.128 63.955021 
L 304.939636 63.955021 
L 304.939636 63.647912 
L 305.751273 63.647912 
L 305.751273 63.31718 
L 306.562909 63.31718 
L 306.562909 62.962824 
L 307.374545 62.962824 
L 307.374545 62.159617 
L 308.186182 62.159617 
L 308.186182 61.876132 
L 308.997818 61.876132 
L 308.997818 61.545399 
L 309.809455 61.545399 
L 309.809455 61.191043 
L 310.621091 61.191043 
L 310.621091 60.836687 
L 311.432727 60.836687 
L 311.432727 60.316965 
L 312.244364 60.316965 
L 312.244364 60.104351 
L 313.056 60.104351 
L 313.056 59.891738 
L 313.867636 59.891738 
L 313.867636 59.608253 
L 314.679273 59.608253 
L 314.679273 59.395639 
L 315.490909 59.395639 
L 315.490909 58.639679 
L 316.302545 58.639679 
L 316.302545 58.285323 
L 317.114182 58.285323 
L 317.114182 58.096333 
L 317.925818 58.096333 
L 317.925818 57.576611 
L 318.737455 57.576611 
L 318.737455 57.245879 
L 319.549091 57.245879 
L 319.549091 56.56079 
L 320.360727 56.56079 
L 320.360727 56.300929 
L 321.172364 56.300929 
L 321.172364 55.922949 
L 321.984 55.922949 
L 321.984 55.663088 
L 322.795636 55.663088 
L 322.795636 55.450474 
L 323.607273 55.450474 
L 323.607273 55.119742 
L 324.418909 55.119742 
L 324.418909 54.954376 
L 325.230545 54.954376 
L 325.230545 54.718138 
L 326.042182 54.718138 
L 326.042182 54.576396 
L 326.853818 54.576396 
L 326.853818 54.434653 
L 327.665455 54.434653 
L 327.665455 54.198416 
L 328.477091 54.198416 
L 328.477091 53.820436 
L 329.288727 53.820436 
L 329.288727 53.584199 
L 330.100364 53.584199 
L 330.100364 53.442456 
L 330.912 53.442456 
L 330.912 53.182595 
L 331.723636 53.182595 
L 331.723636 52.89911 
L 332.535273 52.89911 
L 332.535273 52.733744 
L 334.158545 52.639249 
L 334.158545 52.379388 
L 335.781818 52.308517 
L 335.781818 52.025032 
L 337.405091 52.001408 
L 337.405091 51.883289 
L 338.216727 51.883289 
L 338.216727 51.765171 
L 339.028364 51.765171 
L 339.028364 51.623428 
L 339.84 51.623428 
L 339.84 51.198201 
L 340.651636 51.198201 
L 340.651636 51.009211 
L 341.463273 51.009211 
L 341.463273 50.678479 
L 342.274909 50.678479 
L 342.274909 50.229627 
L 343.898182 50.158756 
L 343.898182 50.017014 
L 344.709818 50.017014 
L 344.709818 49.851648 
L 345.521455 49.851648 
L 345.521455 49.709905 
L 346.333091 49.709905 
L 346.333091 49.591786 
L 347.956364 49.497291 
L 347.956364 49.308302 
L 349.579636 49.23743 
L 349.579636 49.166559 
L 352.014545 49.119312 
L 352.014545 48.930322 
L 355.261091 48.835827 
L 355.261091 48.788579 
L 356.072727 48.788579 
L 356.072727 48.623213 
L 356.884364 48.623213 
L 356.884364 48.481471 
L 359.319273 48.434223 
L 359.319273 48.363352 
L 362.565818 48.268857 
L 362.565818 48.245233 
L 364.189091 48.174362 
L 364.189091 47.985372 
L 366.624 47.890877 
L 366.624 47.867253 
L 368.247273 47.820006 
L 368.247273 47.701887 
L 370.682182 47.65464 
L 370.682182 47.560145 
L 373.928727 47.46565 
L 373.928727 47.442026 
L 377.175273 47.371155 
L 377.175273 47.323907 
L 380.421818 47.253036 
L 380.421818 47.158541 
L 386.914909 47.064046 
L 386.914909 47.040422 
L 390.973091 46.945927 
L 390.973091 46.922304 
L 399.089455 46.827809 
L 399.089455 46.804185 
L 404.770909 46.70969 
L 404.770909 46.662443 
L 407.205818 46.591571 
L 407.205818 46.544324 
L 411.264 46.473453 
L 411.264 46.426205 
L 414.510545 46.33171 
L 414.510545 46.308086 
L 421.003636 46.213591 
L 421.003636 46.166344 
L 425.873455 46.071849 
L 425.873455 46.048225 
L 434.801455 45.95373 
L 434.801455 45.930107 
L 442.106182 45.835612 
L 442.106182 45.811988 
L 457.527273 45.717493 
L 457.527273 45.670245 
L 467.266909 45.57575 
L 467.266909 45.552127 
L 477.818182 45.457632 
L 477.818182 45.386761 
L 486.746182 45.292266 
L 486.746182 45.245018 
L 489.992727 45.174147 
L 489.992727 45.056028 
L 494.862545 44.985157 
L 494.862545 44.937909 
L 498.109091 44.914286 
L 498.109091 252 
L 498.109091 252 
" style="fill:none;stroke:#ff7f0e;stroke-linejoin:miter;stroke-width:2;"/>
   </g>
   <g id="patch_4">
    <path clip-path="url(#p8d55800723)" d="M 92.290909 252 
L 92.290909 247.12665 
L 93.102545 247.12665 
L 93.102545 240.734335 
L 93.914182 240.734335 
L 93.914182 237.12679 
L 94.725818 237.12679 
L 94.725818 235.180615 
L 95.537455 235.180615 
L 95.537455 232.775585 
L 96.349091 232.775585 
L 96.349091 225.117464 
L 97.160727 225.117464 
L 97.160727 222.380161 
L 97.972364 222.380161 
L 97.972364 220.877017 
L 98.784 220.877017 
L 98.784 219.500454 
L 99.595636 219.500454 
L 99.595636 217.759972 
L 100.407273 217.759972 
L 100.407273 215.924555 
L 101.218909 215.924555 
L 101.218909 215.133426 
L 102.030545 215.133426 
L 102.030545 212.80751 
L 102.842182 212.80751 
L 102.842182 211.288543 
L 103.653818 211.288543 
L 103.653818 208.503772 
L 104.465455 208.503772 
L 104.465455 202.396263 
L 105.277091 202.396263 
L 105.277091 200.355152 
L 106.088727 200.355152 
L 106.088727 198.757073 
L 106.900364 198.757073 
L 106.900364 196.953301 
L 107.712 196.953301 
L 107.712 194.215997 
L 108.523636 194.215997 
L 108.523636 187.254069 
L 109.335273 187.254069 
L 109.335273 185.466119 
L 110.146909 185.466119 
L 110.146909 183.67817 
L 110.958545 183.67817 
L 110.958545 182.728816 
L 111.770182 182.728816 
L 111.770182 181.035802 
L 112.581818 181.035802 
L 112.581818 178.203563 
L 113.393455 178.203563 
L 113.393455 177.238386 
L 114.205091 177.238386 
L 114.205091 176.478903 
L 115.016727 176.478903 
L 115.016727 175.608662 
L 115.828364 175.608662 
L 115.828364 174.722599 
L 116.64 174.722599 
L 116.64 173.219455 
L 117.451636 173.219455 
L 117.451636 172.206811 
L 118.263273 172.206811 
L 118.263273 171.178344 
L 119.074909 171.178344 
L 119.074909 169.785959 
L 119.886545 169.785959 
L 119.886545 168.915718 
L 120.698182 168.915718 
L 120.698182 166.46322 
L 121.509818 166.46322 
L 121.509818 165.767028 
L 122.321455 165.767028 
L 122.321455 165.260706 
L 123.133091 165.260706 
L 123.133091 164.42211 
L 123.944727 164.42211 
L 123.944727 163.884143 
L 124.756364 163.884143 
L 124.756364 162.175306 
L 125.568 162.175306 
L 125.568 161.162662 
L 126.379636 161.162662 
L 126.379636 160.10255 
L 127.191273 160.10255 
L 127.191273 159.627873 
L 128.002909 159.627873 
L 128.002909 158.599406 
L 128.814545 158.599406 
L 128.814545 157.333601 
L 129.626182 157.333601 
L 129.626182 156.827279 
L 130.437818 156.827279 
L 130.437818 155.593119 
L 131.249455 155.593119 
L 131.249455 154.67541 
L 132.061091 154.67541 
L 132.061091 153.029864 
L 132.872727 153.029864 
L 132.872727 151.131156 
L 133.684364 151.131156 
L 133.684364 150.22927 
L 134.496 150.22927 
L 134.496 149.216626 
L 135.307636 149.216626 
L 135.307636 148.488788 
L 136.119273 148.488788 
L 136.119273 147.887531 
L 136.930909 147.887531 
L 136.930909 146.004645 
L 137.742545 146.004645 
L 137.742545 145.118582 
L 138.554182 145.118582 
L 138.554182 143.757841 
L 139.365818 143.757841 
L 139.365818 142.08065 
L 140.177455 142.08065 
L 140.177455 141.226231 
L 140.989091 141.226231 
L 140.989091 139.912958 
L 141.800727 139.912958 
L 141.800727 139.200943 
L 142.612364 139.200943 
L 142.612364 138.030073 
L 143.424 138.030073 
L 143.424 137.381348 
L 144.235636 137.381348 
L 144.235636 136.621865 
L 145.047273 136.621865 
L 145.047273 135.545931 
L 145.858909 135.545931 
L 145.858909 135.150367 
L 146.670545 135.150367 
L 146.670545 135.007964 
L 147.482182 135.007964 
L 147.482182 134.865561 
L 148.293818 134.865561 
L 148.293818 134.533287 
L 149.105455 134.533287 
L 149.105455 134.295948 
L 149.917091 134.295948 
L 149.917091 133.425707 
L 150.728727 133.425707 
L 150.728727 132.650402 
L 151.540364 132.650402 
L 151.540364 132.381418 
L 153.163636 132.33395 
L 153.163636 131.843451 
L 153.975273 131.843451 
L 153.975273 131.384597 
L 154.786909 131.384597 
L 154.786909 131.163081 
L 155.598545 131.163081 
L 155.598545 130.925742 
L 156.410182 130.925742 
L 156.410182 129.691582 
L 157.221818 129.691582 
L 157.221818 128.868809 
L 158.033455 128.868809 
L 158.033455 128.520713 
L 158.845091 128.520713 
L 158.845091 127.555536 
L 159.656727 127.555536 
L 159.656727 127.096682 
L 160.468364 127.096682 
L 160.468364 126.811876 
L 161.28 126.811876 
L 161.28 126.432134 
L 162.091636 126.432134 
L 162.091636 126.131505 
L 162.903273 126.131505 
L 162.903273 125.894167 
L 163.714909 125.894167 
L 163.714909 124.928991 
L 164.526545 124.928991 
L 164.526545 124.311911 
L 165.338182 124.311911 
L 165.338182 122.761299 
L 166.149818 122.761299 
L 166.149818 121.938526 
L 166.961455 121.938526 
L 166.961455 121.321446 
L 167.773091 121.321446 
L 167.773091 120.894237 
L 168.584727 120.894237 
L 168.584727 120.467028 
L 169.396364 120.467028 
L 169.396364 119.31198 
L 170.208 119.31198 
L 170.208 118.853126 
L 171.019636 118.853126 
L 171.019636 118.378449 
L 171.831273 118.378449 
L 171.831273 118.030353 
L 172.642909 118.030353 
L 172.642909 117.88795 
L 173.454545 117.88795 
L 173.454545 117.492386 
L 174.266182 117.492386 
L 174.266182 117.096822 
L 175.077818 117.096822 
L 175.077818 116.622145 
L 175.889455 116.622145 
L 175.889455 116.274048 
L 176.701091 116.274048 
L 176.701091 115.467097 
L 177.512727 115.467097 
L 177.512727 114.486098 
L 178.324364 114.486098 
L 178.324364 114.327873 
L 179.947636 114.24876 
L 179.947636 113.821551 
L 181.570909 113.710793 
L 181.570909 113.157003 
L 182.382545 113.157003 
L 182.382545 112.808907 
L 183.194182 112.808907 
L 183.194182 112.524101 
L 184.005818 112.524101 
L 184.005818 112.27094 
L 184.817455 112.27094 
L 184.817455 112.128537 
L 185.629091 112.128537 
L 185.629091 111.938666 
L 186.440727 111.938666 
L 186.440727 111.748795 
L 187.252364 111.748795 
L 187.252364 111.463989 
L 188.064 111.463989 
L 188.064 111.131715 
L 188.875636 111.131715 
L 188.875636 110.815264 
L 189.687273 110.815264 
L 189.687273 109.723507 
L 190.498909 109.723507 
L 190.498909 109.581104 
L 191.310545 109.581104 
L 191.310545 109.327943 
L 192.122182 109.327943 
L 192.122182 109.011491 
L 192.933818 109.011491 
L 192.933818 108.441879 
L 193.745455 108.441879 
L 193.745455 108.01467 
L 194.557091 108.01467 
L 194.557091 107.872267 
L 195.368727 107.872267 
L 195.368727 107.539993 
L 196.180364 107.539993 
L 196.180364 107.239364 
L 196.992 107.239364 
L 196.992 107.033671 
L 197.803636 107.033671 
L 197.803636 106.748865 
L 198.615273 106.748865 
L 198.615273 106.400768 
L 200.238545 106.337478 
L 200.238545 106.258365 
L 201.050182 106.258365 
L 201.050182 105.910269 
L 201.861818 105.910269 
L 201.861818 104.897625 
L 202.673455 104.897625 
L 202.673455 104.18561 
L 203.485091 104.18561 
L 203.485091 104.027384 
L 204.296727 104.027384 
L 204.296727 103.774223 
L 205.108364 103.774223 
L 205.108364 103.331191 
L 205.92 103.331191 
L 205.92 102.350192 
L 206.731636 102.350192 
L 206.731636 102.128676 
L 207.543273 102.128676 
L 207.543273 101.891338 
L 208.354909 101.891338 
L 208.354909 101.606532 
L 209.166545 101.606532 
L 209.166545 100.60971 
L 209.978182 100.60971 
L 209.978182 99.486308 
L 210.789818 99.486308 
L 210.789818 99.106567 
L 211.601455 99.106567 
L 211.601455 98.885051 
L 212.413091 98.885051 
L 212.413091 98.600244 
L 213.224727 98.600244 
L 213.224727 98.157213 
L 214.036364 98.157213 
L 214.036364 96.938875 
L 214.848 96.938875 
L 214.848 96.527489 
L 215.659636 96.527489 
L 215.659636 96.131925 
L 216.471273 96.131925 
L 216.471273 95.60978 
L 217.282909 95.60978 
L 217.282909 94.9927 
L 218.094545 94.9927 
L 218.094545 94.138282 
L 218.906182 94.138282 
L 218.906182 93.69525 
L 219.717818 93.69525 
L 219.717818 92.730073 
L 220.529455 92.730073 
L 220.529455 91.891477 
L 221.341091 91.891477 
L 221.341091 90.863011 
L 222.152727 90.863011 
L 222.152727 90.150995 
L 222.964364 90.150995 
L 222.964364 89.518093 
L 223.776 89.518093 
L 223.776 88.995948 
L 224.587636 88.995948 
L 224.587636 88.647852 
L 225.399273 88.647852 
L 225.399273 88.046594 
L 226.210909 88.046594 
L 226.210909 87.144708 
L 227.022545 87.144708 
L 227.022545 86.780789 
L 227.834182 86.780789 
L 227.834182 86.480161 
L 228.645818 86.480161 
L 228.645818 86.021306 
L 229.457455 86.021306 
L 229.457455 85.356759 
L 230.269091 85.356759 
L 230.269091 84.50234 
L 231.080727 84.50234 
L 231.080727 84.122599 
L 231.892364 84.122599 
L 231.892364 83.742857 
L 232.704 83.742857 
L 232.704 83.458051 
L 233.515636 83.458051 
L 233.515636 83.062487 
L 234.327273 83.062487 
L 234.327273 82.223891 
L 235.138909 82.223891 
L 235.138909 81.511876 
L 235.950545 81.511876 
L 235.950545 80.594167 
L 236.762182 80.594167 
L 236.762182 80.008732 
L 237.573818 80.008732 
L 237.573818 79.534055 
L 238.385455 79.534055 
L 238.385455 78.410653 
L 239.197091 78.410653 
L 239.197091 77.71446 
L 240.008727 77.71446 
L 240.008727 77.208138 
L 240.820364 77.208138 
L 240.820364 76.685994 
L 241.632 76.685994 
L 241.632 76.306252 
L 242.443636 76.306252 
L 242.443636 75.420189 
L 243.255273 75.420189 
L 243.255273 75.214495 
L 244.066909 75.214495 
L 244.066909 74.787286 
L 244.878545 74.787286 
L 244.878545 74.328432 
L 245.690182 74.328432 
L 245.690182 73.853755 
L 246.501818 73.853755 
L 246.501818 72.936046 
L 247.313455 72.936046 
L 247.313455 72.493014 
L 248.125091 72.493014 
L 248.125091 72.224031 
L 248.936727 72.224031 
L 248.936727 71.891757 
L 249.748364 71.891757 
L 249.748364 71.591128 
L 250.56 71.591128 
L 250.56 70.974048 
L 251.371636 70.974048 
L 251.371636 70.562662 
L 252.183273 70.562662 
L 252.183273 70.198743 
L 252.994909 70.198743 
L 252.994909 69.882291 
L 253.806545 69.882291 
L 253.806545 69.724066 
L 254.618182 69.724066 
L 254.618182 69.154453 
L 255.429818 69.154453 
L 255.429818 68.869647 
L 256.241455 68.869647 
L 256.241455 68.600664 
L 257.053091 68.600664 
L 257.053091 68.426615 
L 258.676364 68.315857 
L 258.676364 67.967761 
L 259.488 67.967761 
L 259.488 67.413971 
L 260.299636 67.413971 
L 260.299636 67.287391 
L 261.111273 67.287391 
L 261.111273 67.018407 
L 262.734545 66.923472 
L 262.734545 66.338037 
L 263.546182 66.338037 
L 263.546182 66.037408 
L 264.357818 66.037408 
L 264.357818 65.657667 
L 265.169455 65.657667 
L 265.169455 65.372861 
L 266.792727 65.262103 
L 266.792727 64.866539 
L 267.604364 64.866539 
L 267.604364 64.186168 
L 268.416 64.186168 
L 268.416 63.853895 
L 269.227636 63.853895 
L 269.227636 63.648201 
L 270.039273 63.648201 
L 270.039273 63.300105 
L 270.850909 63.300105 
L 270.850909 62.825428 
L 271.662545 62.825428 
L 271.662545 62.572267 
L 272.474182 62.572267 
L 272.474182 62.176703 
L 273.285818 62.176703 
L 273.285818 61.907719 
L 274.097455 61.907719 
L 274.097455 61.717848 
L 274.909091 61.717848 
L 274.909091 61.496333 
L 275.720727 61.496333 
L 275.720727 61.211526 
L 276.532364 61.211526 
L 276.532364 60.910898 
L 277.344 60.910898 
L 277.344 60.673559 
L 278.155636 60.673559 
L 278.155636 60.531156 
L 278.967273 60.531156 
L 278.967273 60.24635 
L 280.590545 60.151415 
L 280.590545 60.040657 
L 281.402182 60.040657 
L 281.402182 59.914076 
L 282.213818 59.914076 
L 282.213818 59.645093 
L 283.025455 59.645093 
L 283.025455 59.312819 
L 283.837091 59.312819 
L 283.837091 59.170416 
L 284.648727 59.170416 
L 284.648727 59.028013 
L 285.460364 59.028013 
L 285.460364 58.774852 
L 286.272 58.774852 
L 286.272 58.600803 
L 287.083636 58.600803 
L 287.083636 58.315997 
L 287.895273 58.315997 
L 287.895273 58.189417 
L 290.330182 58.094481 
L 290.330182 57.983723 
L 291.141818 57.983723 
L 291.141818 57.84132 
L 291.953455 57.84132 
L 291.953455 57.698917 
L 293.576727 57.603982 
L 293.576727 57.429934 
L 294.388364 57.429934 
L 294.388364 57.303353 
L 295.2 57.303353 
L 295.2 56.986902 
L 296.011636 56.986902 
L 296.011636 56.844499 
L 296.823273 56.844499 
L 296.823273 56.654628 
L 297.634909 56.654628 
L 297.634909 56.48058 
L 299.258182 56.401467 
L 299.258182 55.657806 
L 300.881455 55.594516 
L 300.881455 55.531226 
L 301.693091 55.531226 
L 301.693091 55.357178 
L 302.504727 55.357178 
L 302.504727 55.230597 
L 303.316364 55.230597 
L 303.316364 54.771743 
L 304.128 54.771743 
L 304.128 54.613517 
L 304.939636 54.613517 
L 304.939636 54.392001 
L 305.751273 54.392001 
L 305.751273 54.170486 
L 306.562909 54.170486 
L 306.562909 54.043905 
L 307.374545 54.043905 
L 307.374545 53.695809 
L 308.997818 53.616696 
L 308.997818 53.442648 
L 309.809455 53.442648 
L 309.809455 53.094551 
L 310.621091 53.094551 
L 310.621091 52.936326 
L 311.432727 52.936326 
L 311.432727 52.698987 
L 312.244364 52.698987 
L 312.244364 52.477471 
L 313.056 52.477471 
L 313.056 52.303423 
L 313.867636 52.303423 
L 313.867636 52.129375 
L 314.679273 52.129375 
L 314.679273 51.939504 
L 315.490909 51.939504 
L 315.490909 51.638875 
L 317.114182 51.528117 
L 317.114182 51.464827 
L 318.737455 51.354069 
L 318.737455 51.116731 
L 319.549091 51.116731 
L 319.549091 50.847747 
L 320.360727 50.847747 
L 320.360727 50.657876 
L 321.984 50.578764 
L 321.984 50.483828 
L 323.607273 50.388893 
L 323.607273 50.009151 
L 325.230545 49.945861 
L 325.230545 49.81928 
L 326.853818 49.740168 
L 326.853818 49.6927 
L 327.665455 49.6927 
L 327.665455 49.392071 
L 329.288727 49.360426 
L 329.288727 49.233846 
L 330.100364 49.233846 
L 330.100364 49.028152 
L 331.723636 48.996507 
L 331.723636 48.664233 
L 333.346909 48.616766 
L 333.346909 48.490185 
L 334.970182 48.379427 
L 334.970182 48.237024 
L 335.781818 48.237024 
L 335.781818 48.047153 
L 337.405091 47.952218 
L 337.405091 47.857283 
L 339.84 47.762347 
L 339.84 47.572476 
L 341.463273 47.540831 
L 341.463273 47.430073 
L 343.086545 47.319315 
L 343.086545 47.113622 
L 344.709818 47.002864 
L 344.709818 46.971219 
L 347.144727 46.876284 
L 347.144727 46.812993 
L 347.956364 46.812993 
L 347.956364 46.67059 
L 351.202909 46.575655 
L 351.202909 46.48072 
L 354.449455 46.369962 
L 354.449455 46.338316 
L 356.884364 46.243381 
L 356.884364 46.211736 
L 362.565818 46.116801 
L 362.565818 46.037688 
L 366.624 45.92693 
L 366.624 45.911107 
L 378.798545 45.800349 
L 378.798545 45.784527 
L 389.349818 45.673769 
L 389.349818 45.657946 
L 406.394182 45.547188 
L 406.394182 45.531366 
L 420.192 45.420608 
L 420.192 45.404785 
L 451.845818 45.294027 
L 451.845818 45.278205 
L 460.773818 45.167447 
L 460.773818 45.151624 
L 489.181091 45.040866 
L 489.181091 45.025044 
L 498.109091 44.914286 
L 498.109091 252 
L 498.109091 252 
" style="fill:none;stroke:#1f77b4;stroke-linejoin:miter;stroke-width:2;"/>
   </g>
   <g id="matplotlib.axis_1">
    <g id="xtick_1">
     <g id="line2d_1">
      <path clip-path="url(#p8d55800723)" d="M 92.290909 252 
L 92.290909 34.56 
" style="fill:none;stroke:#b0b0b0;stroke-linecap:square;stroke-width:0.8;"/>
     </g>
     <g id="line2d_2">
      <defs>
       <path d="M 0 0 
L 0 3.5 
" id="m5eed9cc262" style="stroke:#000000;stroke-width:0.8;"/>
      </defs>
      <g>
       <use style="stroke:#000000;stroke-width:0.8;" x="92.290909" xlink:href="#m5eed9cc262" y="252"/>
      </g>
     </g>
     <g id="text_1">
      <!-- 0 -->
      <defs>
       <path d="M 31.78125 66.40625 
Q 24.171875 66.40625 20.328125 58.90625 
Q 16.5 51.421875 16.5 36.375 
Q 16.5 21.390625 20.328125 13.890625 
Q 24.171875 6.390625 31.78125 6.390625 
Q 39.453125 6.390625 43.28125 13.890625 
Q 47.125 21.390625 47.125 36.375 
Q 47.125 51.421875 43.28125 58.90625 
Q 39.453125 66.40625 31.78125 66.40625 
z
M 31.78125 74.21875 
Q 44.046875 74.21875 50.515625 64.515625 
Q 56.984375 54.828125 56.984375 36.375 
Q 56.984375 17.96875 50.515625 8.265625 
Q 44.046875 -1.421875 31.78125 -1.421875 
Q 19.53125 -1.421875 13.0625 8.265625 
Q 6.59375 17.96875 6.59375 36.375 
Q 6.59375 54.828125 13.0625 64.515625 
Q 19.53125 74.21875 31.78125 74.21875 
z
" id="DejaVuSans-30"/>
      </defs>
      <g transform="translate(89.109659 266.598437)scale(0.1 -0.1)">
       <use xlink:href="#DejaVuSans-30"/>
      </g>
     </g>
    </g>
    <g id="xtick_2">
     <g id="line2d_3">
      <path clip-path="url(#p8d55800723)" d="M 159.927273 252 
L 159.927273 34.56 
" style="fill:none;stroke:#b0b0b0;stroke-linecap:square;stroke-width:0.8;"/>
     </g>
     <g id="line2d_4">
      <g>
       <use style="stroke:#000000;stroke-width:0.8;" x="159.927273" xlink:href="#m5eed9cc262" y="252"/>
      </g>
     </g>
     <g id="text_2">
      <!-- 100 -->
      <defs>
       <path d="M 12.40625 8.296875 
L 28.515625 8.296875 
L 28.515625 63.921875 
L 10.984375 60.40625 
L 10.984375 69.390625 
L 28.421875 72.90625 
L 38.28125 72.90625 
L 38.28125 8.296875 
L 54.390625 8.296875 
L 54.390625 0 
L 12.40625 0 
z
" id="DejaVuSans-31"/>
      </defs>
      <g transform="translate(150.383523 266.598437)scale(0.1 -0.1)">
       <use xlink:href="#DejaVuSans-31"/>
       <use x="63.623047" xlink:href="#DejaVuSans-30"/>
       <use x="127.246094" xlink:href="#DejaVuSans-30"/>
      </g>
     </g>
    </g>
    <g id="xtick_3">
     <g id="line2d_5">
      <path clip-path="url(#p8d55800723)" d="M 227.563636 252 
L 227.563636 34.56 
" style="fill:none;stroke:#b0b0b0;stroke-linecap:square;stroke-width:0.8;"/>
     </g>
     <g id="line2d_6">
      <g>
       <use style="stroke:#000000;stroke-width:0.8;" x="227.563636" xlink:href="#m5eed9cc262" y="252"/>
      </g>
     </g>
     <g id="text_3">
      <!-- 200 -->
      <defs>
       <path d="M 19.1875 8.296875 
L 53.609375 8.296875 
L 53.609375 0 
L 7.328125 0 
L 7.328125 8.296875 
Q 12.9375 14.109375 22.625 23.890625 
Q 32.328125 33.6875 34.8125 36.53125 
Q 39.546875 41.84375 41.421875 45.53125 
Q 43.3125 49.21875 43.3125 52.78125 
Q 43.3125 58.59375 39.234375 62.25 
Q 35.15625 65.921875 28.609375 65.921875 
Q 23.96875 65.921875 18.8125 64.3125 
Q 13.671875 62.703125 7.8125 59.421875 
L 7.8125 69.390625 
Q 13.765625 71.78125 18.9375 73 
Q 24.125 74.21875 28.421875 74.21875 
Q 39.75 74.21875 46.484375 68.546875 
Q 53.21875 62.890625 53.21875 53.421875 
Q 53.21875 48.921875 51.53125 44.890625 
Q 49.859375 40.875 45.40625 35.40625 
Q 44.1875 33.984375 37.640625 27.21875 
Q 31.109375 20.453125 19.1875 8.296875 
z
" id="DejaVuSans-32"/>
      </defs>
      <g transform="translate(218.019886 266.598437)scale(0.1 -0.1)">
       <use xlink:href="#DejaVuSans-32"/>
       <use x="63.623047" xlink:href="#DejaVuSans-30"/>
       <use x="127.246094" xlink:href="#DejaVuSans-30"/>
      </g>
     </g>
    </g>
    <g id="xtick_4">
     <g id="line2d_7">
      <path clip-path="url(#p8d55800723)" d="M 295.2 252 
L 295.2 34.56 
" style="fill:none;stroke:#b0b0b0;stroke-linecap:square;stroke-width:0.8;"/>
     </g>
     <g id="line2d_8">
      <g>
       <use style="stroke:#000000;stroke-width:0.8;" x="295.2" xlink:href="#m5eed9cc262" y="252"/>
      </g>
     </g>
     <g id="text_4">
      <!-- 300 -->
      <defs>
       <path d="M 40.578125 39.3125 
Q 47.65625 37.796875 51.625 33 
Q 55.609375 28.21875 55.609375 21.1875 
Q 55.609375 10.40625 48.1875 4.484375 
Q 40.765625 -1.421875 27.09375 -1.421875 
Q 22.515625 -1.421875 17.65625 -0.515625 
Q 12.796875 0.390625 7.625 2.203125 
L 7.625 11.71875 
Q 11.71875 9.328125 16.59375 8.109375 
Q 21.484375 6.890625 26.8125 6.890625 
Q 36.078125 6.890625 40.9375 10.546875 
Q 45.796875 14.203125 45.796875 21.1875 
Q 45.796875 27.640625 41.28125 31.265625 
Q 36.765625 34.90625 28.71875 34.90625 
L 20.21875 34.90625 
L 20.21875 43.015625 
L 29.109375 43.015625 
Q 36.375 43.015625 40.234375 45.921875 
Q 44.09375 48.828125 44.09375 54.296875 
Q 44.09375 59.90625 40.109375 62.90625 
Q 36.140625 65.921875 28.71875 65.921875 
Q 24.65625 65.921875 20.015625 65.03125 
Q 15.375 64.15625 9.8125 62.3125 
L 9.8125 71.09375 
Q 15.4375 72.65625 20.34375 73.4375 
Q 25.25 74.21875 29.59375 74.21875 
Q 40.828125 74.21875 47.359375 69.109375 
Q 53.90625 64.015625 53.90625 55.328125 
Q 53.90625 49.265625 50.4375 45.09375 
Q 46.96875 40.921875 40.578125 39.3125 
z
" id="DejaVuSans-33"/>
      </defs>
      <g transform="translate(285.65625 266.598437)scale(0.1 -0.1)">
       <use xlink:href="#DejaVuSans-33"/>
       <use x="63.623047" xlink:href="#DejaVuSans-30"/>
       <use x="127.246094" xlink:href="#DejaVuSans-30"/>
      </g>
     </g>
    </g>
    <g id="xtick_5">
     <g id="line2d_9">
      <path clip-path="url(#p8d55800723)" d="M 362.836364 252 
L 362.836364 34.56 
" style="fill:none;stroke:#b0b0b0;stroke-linecap:square;stroke-width:0.8;"/>
     </g>
     <g id="line2d_10">
      <g>
       <use style="stroke:#000000;stroke-width:0.8;" x="362.836364" xlink:href="#m5eed9cc262" y="252"/>
      </g>
     </g>
     <g id="text_5">
      <!-- 400 -->
      <defs>
       <path d="M 37.796875 64.3125 
L 12.890625 25.390625 
L 37.796875 25.390625 
z
M 35.203125 72.90625 
L 47.609375 72.90625 
L 47.609375 25.390625 
L 58.015625 25.390625 
L 58.015625 17.1875 
L 47.609375 17.1875 
L 47.609375 0 
L 37.796875 0 
L 37.796875 17.1875 
L 4.890625 17.1875 
L 4.890625 26.703125 
z
" id="DejaVuSans-34"/>
      </defs>
      <g transform="translate(353.292614 266.598437)scale(0.1 -0.1)">
       <use xlink:href="#DejaVuSans-34"/>
       <use x="63.623047" xlink:href="#DejaVuSans-30"/>
       <use x="127.246094" xlink:href="#DejaVuSans-30"/>
      </g>
     </g>
    </g>
    <g id="xtick_6">
     <g id="line2d_11">
      <path clip-path="url(#p8d55800723)" d="M 430.472727 252 
L 430.472727 34.56 
" style="fill:none;stroke:#b0b0b0;stroke-linecap:square;stroke-width:0.8;"/>
     </g>
     <g id="line2d_12">
      <g>
       <use style="stroke:#000000;stroke-width:0.8;" x="430.472727" xlink:href="#m5eed9cc262" y="252"/>
      </g>
     </g>
     <g id="text_6">
      <!-- 500 -->
      <defs>
       <path d="M 10.796875 72.90625 
L 49.515625 72.90625 
L 49.515625 64.59375 
L 19.828125 64.59375 
L 19.828125 46.734375 
Q 21.96875 47.46875 24.109375 47.828125 
Q 26.265625 48.1875 28.421875 48.1875 
Q 40.625 48.1875 47.75 41.5 
Q 54.890625 34.8125 54.890625 23.390625 
Q 54.890625 11.625 47.5625 5.09375 
Q 40.234375 -1.421875 26.90625 -1.421875 
Q 22.3125 -1.421875 17.546875 -0.640625 
Q 12.796875 0.140625 7.71875 1.703125 
L 7.71875 11.625 
Q 12.109375 9.234375 16.796875 8.0625 
Q 21.484375 6.890625 26.703125 6.890625 
Q 35.15625 6.890625 40.078125 11.328125 
Q 45.015625 15.765625 45.015625 23.390625 
Q 45.015625 31 40.078125 35.4375 
Q 35.15625 39.890625 26.703125 39.890625 
Q 22.75 39.890625 18.8125 39.015625 
Q 14.890625 38.140625 10.796875 36.28125 
z
" id="DejaVuSans-35"/>
      </defs>
      <g transform="translate(420.928977 266.598437)scale(0.1 -0.1)">
       <use xlink:href="#DejaVuSans-35"/>
       <use x="63.623047" xlink:href="#DejaVuSans-30"/>
       <use x="127.246094" xlink:href="#DejaVuSans-30"/>
      </g>
     </g>
    </g>
    <g id="xtick_7">
     <g id="line2d_13">
      <path clip-path="url(#p8d55800723)" d="M 498.109091 252 
L 498.109091 34.56 
" style="fill:none;stroke:#b0b0b0;stroke-linecap:square;stroke-width:0.8;"/>
     </g>
     <g id="line2d_14">
      <g>
       <use style="stroke:#000000;stroke-width:0.8;" x="498.109091" xlink:href="#m5eed9cc262" y="252"/>
      </g>
     </g>
     <g id="text_7">
      <!-- 600 -->
      <defs>
       <path d="M 33.015625 40.375 
Q 26.375 40.375 22.484375 35.828125 
Q 18.609375 31.296875 18.609375 23.390625 
Q 18.609375 15.53125 22.484375 10.953125 
Q 26.375 6.390625 33.015625 6.390625 
Q 39.65625 6.390625 43.53125 10.953125 
Q 47.40625 15.53125 47.40625 23.390625 
Q 47.40625 31.296875 43.53125 35.828125 
Q 39.65625 40.375 33.015625 40.375 
z
M 52.59375 71.296875 
L 52.59375 62.3125 
Q 48.875 64.0625 45.09375 64.984375 
Q 41.3125 65.921875 37.59375 65.921875 
Q 27.828125 65.921875 22.671875 59.328125 
Q 17.53125 52.734375 16.796875 39.40625 
Q 19.671875 43.65625 24.015625 45.921875 
Q 28.375 48.1875 33.59375 48.1875 
Q 44.578125 48.1875 50.953125 41.515625 
Q 57.328125 34.859375 57.328125 23.390625 
Q 57.328125 12.15625 50.6875 5.359375 
Q 44.046875 -1.421875 33.015625 -1.421875 
Q 20.359375 -1.421875 13.671875 8.265625 
Q 6.984375 17.96875 6.984375 36.375 
Q 6.984375 53.65625 15.1875 63.9375 
Q 23.390625 74.21875 37.203125 74.21875 
Q 40.921875 74.21875 44.703125 73.484375 
Q 48.484375 72.75 52.59375 71.296875 
z
" id="DejaVuSans-36"/>
      </defs>
      <g transform="translate(488.565341 266.598437)scale(0.1 -0.1)">
       <use xlink:href="#DejaVuSans-36"/>
       <use x="63.623047" xlink:href="#DejaVuSans-30"/>
       <use x="127.246094" xlink:href="#DejaVuSans-30"/>
      </g>
     </g>
    </g>
    <g id="text_8">
     <!-- RTT (ms) -->
     <defs>
      <path d="M 44.390625 34.1875 
Q 47.5625 33.109375 50.5625 29.59375 
Q 53.5625 26.078125 56.59375 19.921875 
L 66.609375 0 
L 56 0 
L 46.6875 18.703125 
Q 43.0625 26.03125 39.671875 28.421875 
Q 36.28125 30.8125 30.421875 30.8125 
L 19.671875 30.8125 
L 19.671875 0 
L 9.8125 0 
L 9.8125 72.90625 
L 32.078125 72.90625 
Q 44.578125 72.90625 50.734375 67.671875 
Q 56.890625 62.453125 56.890625 51.90625 
Q 56.890625 45.015625 53.6875 40.46875 
Q 50.484375 35.9375 44.390625 34.1875 
z
M 19.671875 64.796875 
L 19.671875 38.921875 
L 32.078125 38.921875 
Q 39.203125 38.921875 42.84375 42.21875 
Q 46.484375 45.515625 46.484375 51.90625 
Q 46.484375 58.296875 42.84375 61.546875 
Q 39.203125 64.796875 32.078125 64.796875 
z
" id="DejaVuSans-52"/>
      <path d="M -0.296875 72.90625 
L 61.375 72.90625 
L 61.375 64.59375 
L 35.5 64.59375 
L 35.5 0 
L 25.59375 0 
L 25.59375 64.59375 
L -0.296875 64.59375 
z
" id="DejaVuSans-54"/>
      <path id="DejaVuSans-20"/>
      <path d="M 31 75.875 
Q 24.46875 64.65625 21.28125 53.65625 
Q 18.109375 42.671875 18.109375 31.390625 
Q 18.109375 20.125 21.3125 9.0625 
Q 24.515625 -2 31 -13.1875 
L 23.1875 -13.1875 
Q 15.875 -1.703125 12.234375 9.375 
Q 8.59375 20.453125 8.59375 31.390625 
Q 8.59375 42.28125 12.203125 53.3125 
Q 15.828125 64.359375 23.1875 75.875 
z
" id="DejaVuSans-28"/>
      <path d="M 52 44.1875 
Q 55.375 50.25 60.0625 53.125 
Q 64.75 56 71.09375 56 
Q 79.640625 56 84.28125 50.015625 
Q 88.921875 44.046875 88.921875 33.015625 
L 88.921875 0 
L 79.890625 0 
L 79.890625 32.71875 
Q 79.890625 40.578125 77.09375 44.375 
Q 74.3125 48.1875 68.609375 48.1875 
Q 61.625 48.1875 57.5625 43.546875 
Q 53.515625 38.921875 53.515625 30.90625 
L 53.515625 0 
L 44.484375 0 
L 44.484375 32.71875 
Q 44.484375 40.625 41.703125 44.40625 
Q 38.921875 48.1875 33.109375 48.1875 
Q 26.21875 48.1875 22.15625 43.53125 
Q 18.109375 38.875 18.109375 30.90625 
L 18.109375 0 
L 9.078125 0 
L 9.078125 54.6875 
L 18.109375 54.6875 
L 18.109375 46.1875 
Q 21.1875 51.21875 25.484375 53.609375 
Q 29.78125 56 35.6875 56 
Q 41.65625 56 45.828125 52.96875 
Q 50 49.953125 52 44.1875 
z
" id="DejaVuSans-6d"/>
      <path d="M 44.28125 53.078125 
L 44.28125 44.578125 
Q 40.484375 46.53125 36.375 47.5 
Q 32.28125 48.484375 27.875 48.484375 
Q 21.1875 48.484375 17.84375 46.4375 
Q 14.5 44.390625 14.5 40.28125 
Q 14.5 37.15625 16.890625 35.375 
Q 19.28125 33.59375 26.515625 31.984375 
L 29.59375 31.296875 
Q 39.15625 29.25 43.1875 25.515625 
Q 47.21875 21.78125 47.21875 15.09375 
Q 47.21875 7.46875 41.1875 3.015625 
Q 35.15625 -1.421875 24.609375 -1.421875 
Q 20.21875 -1.421875 15.453125 -0.5625 
Q 10.6875 0.296875 5.421875 2 
L 5.421875 11.28125 
Q 10.40625 8.6875 15.234375 7.390625 
Q 20.0625 6.109375 24.8125 6.109375 
Q 31.15625 6.109375 34.5625 8.28125 
Q 37.984375 10.453125 37.984375 14.40625 
Q 37.984375 18.0625 35.515625 20.015625 
Q 33.0625 21.96875 24.703125 23.78125 
L 21.578125 24.515625 
Q 13.234375 26.265625 9.515625 29.90625 
Q 5.8125 33.546875 5.8125 39.890625 
Q 5.8125 47.609375 11.28125 51.796875 
Q 16.75 56 26.8125 56 
Q 31.78125 56 36.171875 55.265625 
Q 40.578125 54.546875 44.28125 53.078125 
z
" id="DejaVuSans-73"/>
      <path d="M 8.015625 75.875 
L 15.828125 75.875 
Q 23.140625 64.359375 26.78125 53.3125 
Q 30.421875 42.28125 30.421875 31.390625 
Q 30.421875 20.453125 26.78125 9.375 
Q 23.140625 -1.703125 15.828125 -13.1875 
L 8.015625 -13.1875 
Q 14.5 -2 17.703125 9.0625 
Q 20.90625 20.125 20.90625 31.390625 
Q 20.90625 42.671875 17.703125 53.65625 
Q 14.5 64.65625 8.015625 75.875 
z
" id="DejaVuSans-29"/>
     </defs>
     <g transform="translate(272.658594 280.276563)scale(0.1 -0.1)">
      <use xlink:href="#DejaVuSans-52"/>
      <use x="69.373047" xlink:href="#DejaVuSans-54"/>
      <use x="130.441406" xlink:href="#DejaVuSans-54"/>
      <use x="191.525391" xlink:href="#DejaVuSans-20"/>
      <use x="223.3125" xlink:href="#DejaVuSans-28"/>
      <use x="262.326172" xlink:href="#DejaVuSans-6d"/>
      <use x="359.738281" xlink:href="#DejaVuSans-73"/>
      <use x="411.837891" xlink:href="#DejaVuSans-29"/>
     </g>
    </g>
   </g>
   <g id="matplotlib.axis_2">
    <g id="ytick_1">
     <g id="line2d_15">
      <path clip-path="url(#p8d55800723)" d="M 72 252 
L 518.4 252 
" style="fill:none;stroke:#b0b0b0;stroke-linecap:square;stroke-width:0.8;"/>
     </g>
     <g id="line2d_16">
      <defs>
       <path d="M 0 0 
L -3.5 0 
" id="mca66729fbd" style="stroke:#000000;stroke-width:0.8;"/>
      </defs>
      <g>
       <use style="stroke:#000000;stroke-width:0.8;" x="72" xlink:href="#mca66729fbd" y="252"/>
      </g>
     </g>
     <g id="text_9">
      <!-- 0.0 -->
      <defs>
       <path d="M 10.6875 12.40625 
L 21 12.40625 
L 21 0 
L 10.6875 0 
z
" id="DejaVuSans-2e"/>
      </defs>
      <g transform="translate(49.096875 255.799219)scale(0.1 -0.1)">
       <use xlink:href="#DejaVuSans-30"/>
       <use x="63.623047" xlink:href="#DejaVuSans-2e"/>
       <use x="95.410156" xlink:href="#DejaVuSans-30"/>
      </g>
     </g>
    </g>
    <g id="ytick_2">
     <g id="line2d_17">
      <path clip-path="url(#p8d55800723)" d="M 72 210.582857 
L 518.4 210.582857 
" style="fill:none;stroke:#b0b0b0;stroke-linecap:square;stroke-width:0.8;"/>
     </g>
     <g id="line2d_18">
      <g>
       <use style="stroke:#000000;stroke-width:0.8;" x="72" xlink:href="#mca66729fbd" y="210.582857"/>
      </g>
     </g>
     <g id="text_10">
      <!-- 0.2 -->
      <g transform="translate(49.096875 214.382076)scale(0.1 -0.1)">
       <use xlink:href="#DejaVuSans-30"/>
       <use x="63.623047" xlink:href="#DejaVuSans-2e"/>
       <use x="95.410156" xlink:href="#DejaVuSans-32"/>
      </g>
     </g>
    </g>
    <g id="ytick_3">
     <g id="line2d_19">
      <path clip-path="url(#p8d55800723)" d="M 72 169.165714 
L 518.4 169.165714 
" style="fill:none;stroke:#b0b0b0;stroke-linecap:square;stroke-width:0.8;"/>
     </g>
     <g id="line2d_20">
      <g>
       <use style="stroke:#000000;stroke-width:0.8;" x="72" xlink:href="#mca66729fbd" y="169.165714"/>
      </g>
     </g>
     <g id="text_11">
      <!-- 0.4 -->
      <g transform="translate(49.096875 172.964933)scale(0.1 -0.1)">
       <use xlink:href="#DejaVuSans-30"/>
       <use x="63.623047" xlink:href="#DejaVuSans-2e"/>
       <use x="95.410156" xlink:href="#DejaVuSans-34"/>
      </g>
     </g>
    </g>
    <g id="ytick_4">
     <g id="line2d_21">
      <path clip-path="url(#p8d55800723)" d="M 72 127.748571 
L 518.4 127.748571 
" style="fill:none;stroke:#b0b0b0;stroke-linecap:square;stroke-width:0.8;"/>
     </g>
     <g id="line2d_22">
      <g>
       <use style="stroke:#000000;stroke-width:0.8;" x="72" xlink:href="#mca66729fbd" y="127.748571"/>
      </g>
     </g>
     <g id="text_12">
      <!-- 0.6 -->
      <g transform="translate(49.096875 131.54779)scale(0.1 -0.1)">
       <use xlink:href="#DejaVuSans-30"/>
       <use x="63.623047" xlink:href="#DejaVuSans-2e"/>
       <use x="95.410156" xlink:href="#DejaVuSans-36"/>
      </g>
     </g>
    </g>
    <g id="ytick_5">
     <g id="line2d_23">
      <path clip-path="url(#p8d55800723)" d="M 72 86.331429 
L 518.4 86.331429 
" style="fill:none;stroke:#b0b0b0;stroke-linecap:square;stroke-width:0.8;"/>
     </g>
     <g id="line2d_24">
      <g>
       <use style="stroke:#000000;stroke-width:0.8;" x="72" xlink:href="#mca66729fbd" y="86.331429"/>
      </g>
     </g>
     <g id="text_13">
      <!-- 0.8 -->
      <defs>
       <path d="M 31.78125 34.625 
Q 24.75 34.625 20.71875 30.859375 
Q 16.703125 27.09375 16.703125 20.515625 
Q 16.703125 13.921875 20.71875 10.15625 
Q 24.75 6.390625 31.78125 6.390625 
Q 38.8125 6.390625 42.859375 10.171875 
Q 46.921875 13.96875 46.921875 20.515625 
Q 46.921875 27.09375 42.890625 30.859375 
Q 38.875 34.625 31.78125 34.625 
z
M 21.921875 38.8125 
Q 15.578125 40.375 12.03125 44.71875 
Q 8.5 49.078125 8.5 55.328125 
Q 8.5 64.0625 14.71875 69.140625 
Q 20.953125 74.21875 31.78125 74.21875 
Q 42.671875 74.21875 48.875 69.140625 
Q 55.078125 64.0625 55.078125 55.328125 
Q 55.078125 49.078125 51.53125 44.71875 
Q 48 40.375 41.703125 38.8125 
Q 48.828125 37.15625 52.796875 32.3125 
Q 56.78125 27.484375 56.78125 20.515625 
Q 56.78125 9.90625 50.3125 4.234375 
Q 43.84375 -1.421875 31.78125 -1.421875 
Q 19.734375 -1.421875 13.25 4.234375 
Q 6.78125 9.90625 6.78125 20.515625 
Q 6.78125 27.484375 10.78125 32.3125 
Q 14.796875 37.15625 21.921875 38.8125 
z
M 18.3125 54.390625 
Q 18.3125 48.734375 21.84375 45.5625 
Q 25.390625 42.390625 31.78125 42.390625 
Q 38.140625 42.390625 41.71875 45.5625 
Q 45.3125 48.734375 45.3125 54.390625 
Q 45.3125 60.0625 41.71875 63.234375 
Q 38.140625 66.40625 31.78125 66.40625 
Q 25.390625 66.40625 21.84375 63.234375 
Q 18.3125 60.0625 18.3125 54.390625 
z
" id="DejaVuSans-38"/>
      </defs>
      <g transform="translate(49.096875 90.130647)scale(0.1 -0.1)">
       <use xlink:href="#DejaVuSans-30"/>
       <use x="63.623047" xlink:href="#DejaVuSans-2e"/>
       <use x="95.410156" xlink:href="#DejaVuSans-38"/>
      </g>
     </g>
    </g>
    <g id="ytick_6">
     <g id="line2d_25">
      <path clip-path="url(#p8d55800723)" d="M 72 44.914286 
L 518.4 44.914286 
" style="fill:none;stroke:#b0b0b0;stroke-linecap:square;stroke-width:0.8;"/>
     </g>
     <g id="line2d_26">
      <g>
       <use style="stroke:#000000;stroke-width:0.8;" x="72" xlink:href="#mca66729fbd" y="44.914286"/>
      </g>
     </g>
     <g id="text_14">
      <!-- 1.0 -->
      <g transform="translate(49.096875 48.713504)scale(0.1 -0.1)">
       <use xlink:href="#DejaVuSans-31"/>
       <use x="63.623047" xlink:href="#DejaVuSans-2e"/>
       <use x="95.410156" xlink:href="#DejaVuSans-30"/>
      </g>
     </g>
    </g>
    <g id="text_15">
     <!-- CDF -->
     <defs>
      <path d="M 64.40625 67.28125 
L 64.40625 56.890625 
Q 59.421875 61.53125 53.78125 63.8125 
Q 48.140625 66.109375 41.796875 66.109375 
Q 29.296875 66.109375 22.65625 58.46875 
Q 16.015625 50.828125 16.015625 36.375 
Q 16.015625 21.96875 22.65625 14.328125 
Q 29.296875 6.6875 41.796875 6.6875 
Q 48.140625 6.6875 53.78125 8.984375 
Q 59.421875 11.28125 64.40625 15.921875 
L 64.40625 5.609375 
Q 59.234375 2.09375 53.4375 0.328125 
Q 47.65625 -1.421875 41.21875 -1.421875 
Q 24.65625 -1.421875 15.125 8.703125 
Q 5.609375 18.84375 5.609375 36.375 
Q 5.609375 53.953125 15.125 64.078125 
Q 24.65625 74.21875 41.21875 74.21875 
Q 47.75 74.21875 53.53125 72.484375 
Q 59.328125 70.75 64.40625 67.28125 
z
" id="DejaVuSans-43"/>
      <path d="M 19.671875 64.796875 
L 19.671875 8.109375 
L 31.59375 8.109375 
Q 46.6875 8.109375 53.6875 14.9375 
Q 60.6875 21.78125 60.6875 36.53125 
Q 60.6875 51.171875 53.6875 57.984375 
Q 46.6875 64.796875 31.59375 64.796875 
z
M 9.8125 72.90625 
L 30.078125 72.90625 
Q 51.265625 72.90625 61.171875 64.09375 
Q 71.09375 55.28125 71.09375 36.53125 
Q 71.09375 17.671875 61.125 8.828125 
Q 51.171875 0 30.078125 0 
L 9.8125 0 
z
" id="DejaVuSans-44"/>
      <path d="M 9.8125 72.90625 
L 51.703125 72.90625 
L 51.703125 64.59375 
L 19.671875 64.59375 
L 19.671875 43.109375 
L 48.578125 43.109375 
L 48.578125 34.8125 
L 19.671875 34.8125 
L 19.671875 0 
L 9.8125 0 
z
" id="DejaVuSans-46"/>
     </defs>
     <g transform="translate(43.017187 153.497187)rotate(-90)scale(0.1 -0.1)">
      <use xlink:href="#DejaVuSans-43"/>
      <use x="69.824219" xlink:href="#DejaVuSans-44"/>
      <use x="146.826172" xlink:href="#DejaVuSans-46"/>
     </g>
    </g>
   </g>
   <g id="patch_5">
    <path d="M 72 252 
L 72 34.56 
" style="fill:none;stroke:#000000;stroke-linecap:square;stroke-linejoin:miter;stroke-width:0.8;"/>
   </g>
   <g id="patch_6">
    <path d="M 518.4 252 
L 518.4 34.56 
" style="fill:none;stroke:#000000;stroke-linecap:square;stroke-linejoin:miter;stroke-width:0.8;"/>
   </g>
   <g id="patch_7">
    <path d="M 72 252 
L 518.4 252 
" style="fill:none;stroke:#000000;stroke-linecap:square;stroke-linejoin:miter;stroke-width:0.8;"/>
   </g>
   <g id="patch_8">
    <path d="M 72 34.56 
L 518.4 34.56 
" style="fill:none;stroke:#000000;stroke-linecap:square;stroke-linejoin:miter;stroke-width:0.8;"/>
   </g>
   <g id="text_16">
    <!-- RTT for websites using CDN vs NO CDN -->
    <defs>
     <path d="M 37.109375 75.984375 
L 37.109375 68.5 
L 28.515625 68.5 
Q 23.6875 68.5 21.796875 66.546875 
Q 19.921875 64.59375 19.921875 59.515625 
L 19.921875 54.6875 
L 34.71875 54.6875 
L 34.71875 47.703125 
L 19.921875 47.703125 
L 19.921875 0 
L 10.890625 0 
L 10.890625 47.703125 
L 2.296875 47.703125 
L 2.296875 54.6875 
L 10.890625 54.6875 
L 10.890625 58.5 
Q 10.890625 67.625 15.140625 71.796875 
Q 19.390625 75.984375 28.609375 75.984375 
z
" id="DejaVuSans-66"/>
     <path d="M 30.609375 48.390625 
Q 23.390625 48.390625 19.1875 42.75 
Q 14.984375 37.109375 14.984375 27.296875 
Q 14.984375 17.484375 19.15625 11.84375 
Q 23.34375 6.203125 30.609375 6.203125 
Q 37.796875 6.203125 41.984375 11.859375 
Q 46.1875 17.53125 46.1875 27.296875 
Q 46.1875 37.015625 41.984375 42.703125 
Q 37.796875 48.390625 30.609375 48.390625 
z
M 30.609375 56 
Q 42.328125 56 49.015625 48.375 
Q 55.71875 40.765625 55.71875 27.296875 
Q 55.71875 13.875 49.015625 6.21875 
Q 42.328125 -1.421875 30.609375 -1.421875 
Q 18.84375 -1.421875 12.171875 6.21875 
Q 5.515625 13.875 5.515625 27.296875 
Q 5.515625 40.765625 12.171875 48.375 
Q 18.84375 56 30.609375 56 
z
" id="DejaVuSans-6f"/>
     <path d="M 41.109375 46.296875 
Q 39.59375 47.171875 37.8125 47.578125 
Q 36.03125 48 33.890625 48 
Q 26.265625 48 22.1875 43.046875 
Q 18.109375 38.09375 18.109375 28.8125 
L 18.109375 0 
L 9.078125 0 
L 9.078125 54.6875 
L 18.109375 54.6875 
L 18.109375 46.1875 
Q 20.953125 51.171875 25.484375 53.578125 
Q 30.03125 56 36.53125 56 
Q 37.453125 56 38.578125 55.875 
Q 39.703125 55.765625 41.0625 55.515625 
z
" id="DejaVuSans-72"/>
     <path d="M 4.203125 54.6875 
L 13.1875 54.6875 
L 24.421875 12.015625 
L 35.59375 54.6875 
L 46.1875 54.6875 
L 57.421875 12.015625 
L 68.609375 54.6875 
L 77.59375 54.6875 
L 63.28125 0 
L 52.6875 0 
L 40.921875 44.828125 
L 29.109375 0 
L 18.5 0 
z
" id="DejaVuSans-77"/>
     <path d="M 56.203125 29.59375 
L 56.203125 25.203125 
L 14.890625 25.203125 
Q 15.484375 15.921875 20.484375 11.0625 
Q 25.484375 6.203125 34.421875 6.203125 
Q 39.59375 6.203125 44.453125 7.46875 
Q 49.3125 8.734375 54.109375 11.28125 
L 54.109375 2.78125 
Q 49.265625 0.734375 44.1875 -0.34375 
Q 39.109375 -1.421875 33.890625 -1.421875 
Q 20.796875 -1.421875 13.15625 6.1875 
Q 5.515625 13.8125 5.515625 26.8125 
Q 5.515625 40.234375 12.765625 48.109375 
Q 20.015625 56 32.328125 56 
Q 43.359375 56 49.78125 48.890625 
Q 56.203125 41.796875 56.203125 29.59375 
z
M 47.21875 32.234375 
Q 47.125 39.59375 43.09375 43.984375 
Q 39.0625 48.390625 32.421875 48.390625 
Q 24.90625 48.390625 20.390625 44.140625 
Q 15.875 39.890625 15.1875 32.171875 
z
" id="DejaVuSans-65"/>
     <path d="M 48.6875 27.296875 
Q 48.6875 37.203125 44.609375 42.84375 
Q 40.53125 48.484375 33.40625 48.484375 
Q 26.265625 48.484375 22.1875 42.84375 
Q 18.109375 37.203125 18.109375 27.296875 
Q 18.109375 17.390625 22.1875 11.75 
Q 26.265625 6.109375 33.40625 6.109375 
Q 40.53125 6.109375 44.609375 11.75 
Q 48.6875 17.390625 48.6875 27.296875 
z
M 18.109375 46.390625 
Q 20.953125 51.265625 25.265625 53.625 
Q 29.59375 56 35.59375 56 
Q 45.5625 56 51.78125 48.09375 
Q 58.015625 40.1875 58.015625 27.296875 
Q 58.015625 14.40625 51.78125 6.484375 
Q 45.5625 -1.421875 35.59375 -1.421875 
Q 29.59375 -1.421875 25.265625 0.953125 
Q 20.953125 3.328125 18.109375 8.203125 
L 18.109375 0 
L 9.078125 0 
L 9.078125 75.984375 
L 18.109375 75.984375 
z
" id="DejaVuSans-62"/>
     <path d="M 9.421875 54.6875 
L 18.40625 54.6875 
L 18.40625 0 
L 9.421875 0 
z
M 9.421875 75.984375 
L 18.40625 75.984375 
L 18.40625 64.59375 
L 9.421875 64.59375 
z
" id="DejaVuSans-69"/>
     <path d="M 18.3125 70.21875 
L 18.3125 54.6875 
L 36.8125 54.6875 
L 36.8125 47.703125 
L 18.3125 47.703125 
L 18.3125 18.015625 
Q 18.3125 11.328125 20.140625 9.421875 
Q 21.96875 7.515625 27.59375 7.515625 
L 36.8125 7.515625 
L 36.8125 0 
L 27.59375 0 
Q 17.1875 0 13.234375 3.875 
Q 9.28125 7.765625 9.28125 18.015625 
L 9.28125 47.703125 
L 2.6875 47.703125 
L 2.6875 54.6875 
L 9.28125 54.6875 
L 9.28125 70.21875 
z
" id="DejaVuSans-74"/>
     <path d="M 8.5 21.578125 
L 8.5 54.6875 
L 17.484375 54.6875 
L 17.484375 21.921875 
Q 17.484375 14.15625 20.5 10.265625 
Q 23.53125 6.390625 29.59375 6.390625 
Q 36.859375 6.390625 41.078125 11.03125 
Q 45.3125 15.671875 45.3125 23.6875 
L 45.3125 54.6875 
L 54.296875 54.6875 
L 54.296875 0 
L 45.3125 0 
L 45.3125 8.40625 
Q 42.046875 3.421875 37.71875 1 
Q 33.40625 -1.421875 27.6875 -1.421875 
Q 18.265625 -1.421875 13.375 4.4375 
Q 8.5 10.296875 8.5 21.578125 
z
M 31.109375 56 
z
" id="DejaVuSans-75"/>
     <path d="M 54.890625 33.015625 
L 54.890625 0 
L 45.90625 0 
L 45.90625 32.71875 
Q 45.90625 40.484375 42.875 44.328125 
Q 39.84375 48.1875 33.796875 48.1875 
Q 26.515625 48.1875 22.3125 43.546875 
Q 18.109375 38.921875 18.109375 30.90625 
L 18.109375 0 
L 9.078125 0 
L 9.078125 54.6875 
L 18.109375 54.6875 
L 18.109375 46.1875 
Q 21.34375 51.125 25.703125 53.5625 
Q 30.078125 56 35.796875 56 
Q 45.21875 56 50.046875 50.171875 
Q 54.890625 44.34375 54.890625 33.015625 
z
" id="DejaVuSans-6e"/>
     <path d="M 45.40625 27.984375 
Q 45.40625 37.75 41.375 43.109375 
Q 37.359375 48.484375 30.078125 48.484375 
Q 22.859375 48.484375 18.828125 43.109375 
Q 14.796875 37.75 14.796875 27.984375 
Q 14.796875 18.265625 18.828125 12.890625 
Q 22.859375 7.515625 30.078125 7.515625 
Q 37.359375 7.515625 41.375 12.890625 
Q 45.40625 18.265625 45.40625 27.984375 
z
M 54.390625 6.78125 
Q 54.390625 -7.171875 48.1875 -13.984375 
Q 42 -20.796875 29.203125 -20.796875 
Q 24.46875 -20.796875 20.265625 -20.09375 
Q 16.0625 -19.390625 12.109375 -17.921875 
L 12.109375 -9.1875 
Q 16.0625 -11.328125 19.921875 -12.34375 
Q 23.78125 -13.375 27.78125 -13.375 
Q 36.625 -13.375 41.015625 -8.765625 
Q 45.40625 -4.15625 45.40625 5.171875 
L 45.40625 9.625 
Q 42.625 4.78125 38.28125 2.390625 
Q 33.9375 0 27.875 0 
Q 17.828125 0 11.671875 7.65625 
Q 5.515625 15.328125 5.515625 27.984375 
Q 5.515625 40.671875 11.671875 48.328125 
Q 17.828125 56 27.875 56 
Q 33.9375 56 38.28125 53.609375 
Q 42.625 51.21875 45.40625 46.390625 
L 45.40625 54.6875 
L 54.390625 54.6875 
z
" id="DejaVuSans-67"/>
     <path d="M 9.8125 72.90625 
L 23.09375 72.90625 
L 55.421875 11.921875 
L 55.421875 72.90625 
L 64.984375 72.90625 
L 64.984375 0 
L 51.703125 0 
L 19.390625 60.984375 
L 19.390625 0 
L 9.8125 0 
z
" id="DejaVuSans-4e"/>
     <path d="M 2.984375 54.6875 
L 12.5 54.6875 
L 29.59375 8.796875 
L 46.6875 54.6875 
L 56.203125 54.6875 
L 35.6875 0 
L 23.484375 0 
z
" id="DejaVuSans-76"/>
     <path d="M 39.40625 66.21875 
Q 28.65625 66.21875 22.328125 58.203125 
Q 16.015625 50.203125 16.015625 36.375 
Q 16.015625 22.609375 22.328125 14.59375 
Q 28.65625 6.59375 39.40625 6.59375 
Q 50.140625 6.59375 56.421875 14.59375 
Q 62.703125 22.609375 62.703125 36.375 
Q 62.703125 50.203125 56.421875 58.203125 
Q 50.140625 66.21875 39.40625 66.21875 
z
M 39.40625 74.21875 
Q 54.734375 74.21875 63.90625 63.9375 
Q 73.09375 53.65625 73.09375 36.375 
Q 73.09375 19.140625 63.90625 8.859375 
Q 54.734375 -1.421875 39.40625 -1.421875 
Q 24.03125 -1.421875 14.8125 8.828125 
Q 5.609375 19.09375 5.609375 36.375 
Q 5.609375 53.65625 14.8125 63.9375 
Q 24.03125 74.21875 39.40625 74.21875 
z
" id="DejaVuSans-4f"/>
    </defs>
    <g transform="translate(177.04875 28.56)scale(0.12 -0.12)">
     <use xlink:href="#DejaVuSans-52"/>
     <use x="69.373047" xlink:href="#DejaVuSans-54"/>
     <use x="130.441406" xlink:href="#DejaVuSans-54"/>
     <use x="191.525391" xlink:href="#DejaVuSans-20"/>
     <use x="223.3125" xlink:href="#DejaVuSans-66"/>
     <use x="258.517578" xlink:href="#DejaVuSans-6f"/>
     <use x="319.699219" xlink:href="#DejaVuSans-72"/>
     <use x="360.8125" xlink:href="#DejaVuSans-20"/>
     <use x="392.599609" xlink:href="#DejaVuSans-77"/>
     <use x="474.386719" xlink:href="#DejaVuSans-65"/>
     <use x="535.910156" xlink:href="#DejaVuSans-62"/>
     <use x="599.386719" xlink:href="#DejaVuSans-73"/>
     <use x="651.486328" xlink:href="#DejaVuSans-69"/>
     <use x="679.269531" xlink:href="#DejaVuSans-74"/>
     <use x="718.478516" xlink:href="#DejaVuSans-65"/>
     <use x="780.001953" xlink:href="#DejaVuSans-73"/>
     <use x="832.101562" xlink:href="#DejaVuSans-20"/>
     <use x="863.888672" xlink:href="#DejaVuSans-75"/>
     <use x="927.267578" xlink:href="#DejaVuSans-73"/>
     <use x="979.367188" xlink:href="#DejaVuSans-69"/>
     <use x="1007.150391" xlink:href="#DejaVuSans-6e"/>
     <use x="1070.529297" xlink:href="#DejaVuSans-67"/>
     <use x="1134.005859" xlink:href="#DejaVuSans-20"/>
     <use x="1165.792969" xlink:href="#DejaVuSans-43"/>
     <use x="1235.617188" xlink:href="#DejaVuSans-44"/>
     <use x="1312.619141" xlink:href="#DejaVuSans-4e"/>
     <use x="1387.423828" xlink:href="#DejaVuSans-20"/>
     <use x="1419.210938" xlink:href="#DejaVuSans-76"/>
     <use x="1478.390625" xlink:href="#DejaVuSans-73"/>
     <use x="1530.490234" xlink:href="#DejaVuSans-20"/>
     <use x="1562.277344" xlink:href="#DejaVuSans-4e"/>
     <use x="1637.082031" xlink:href="#DejaVuSans-4f"/>
     <use x="1715.792969" xlink:href="#DejaVuSans-20"/>
     <use x="1747.580078" xlink:href="#DejaVuSans-43"/>
     <use x="1817.404297" xlink:href="#DejaVuSans-44"/>
     <use x="1894.40625" xlink:href="#DejaVuSans-4e"/>
    </g>
   </g>
   <g id="legend_1">
    <g id="patch_9">
     <path d="M 438.704687 159.458125 
L 511.4 159.458125 
Q 513.4 159.458125 513.4 157.458125 
L 513.4 129.101875 
Q 513.4 127.101875 511.4 127.101875 
L 438.704687 127.101875 
Q 436.704687 127.101875 436.704687 129.101875 
L 436.704687 157.458125 
Q 436.704687 159.458125 438.704687 159.458125 
z
" style="fill:#ffffff;opacity:0.8;stroke:#cccccc;stroke-linejoin:miter;"/>
    </g>
    <g id="patch_10">
     <path d="M 440.704687 138.700312 
L 460.704687 138.700312 
L 460.704687 131.700312 
L 440.704687 131.700312 
z
" style="fill:none;stroke:#ff7f0e;stroke-linejoin:miter;stroke-width:2;"/>
    </g>
    <g id="text_17">
     <!-- NO CDN -->
     <g transform="translate(468.704687 138.700312)scale(0.1 -0.1)">
      <use xlink:href="#DejaVuSans-4e"/>
      <use x="74.804688" xlink:href="#DejaVuSans-4f"/>
      <use x="153.515625" xlink:href="#DejaVuSans-20"/>
      <use x="185.302734" xlink:href="#DejaVuSans-43"/>
      <use x="255.126953" xlink:href="#DejaVuSans-44"/>
      <use x="332.128906" xlink:href="#DejaVuSans-4e"/>
     </g>
    </g>
    <g id="patch_11">
     <path d="M 440.704687 153.378437 
L 460.704687 153.378437 
L 460.704687 146.378437 
L 440.704687 146.378437 
z
" style="fill:none;stroke:#1f77b4;stroke-linejoin:miter;stroke-width:2;"/>
    </g>
    <g id="text_18">
     <!-- CDN -->
     <g transform="translate(468.704687 153.378437)scale(0.1 -0.1)">
      <use xlink:href="#DejaVuSans-43"/>
      <use x="69.824219" xlink:href="#DejaVuSans-44"/>
      <use x="146.826172" xlink:href="#DejaVuSans-4e"/>
     </g>
    </g>
   </g>
  </g>
 </g>
 <defs>
  <clipPath id="p8d55800723">
   <rect height="217.44" width="446.4" x="72" y="34.56"/>
  </clipPath>
 </defs>
</svg>
