<?xml version="1.0" encoding="utf-8" standalone="no"?>
<!DOCTYPE svg PUBLIC "-//W3C//DTD SVG 1.1//EN"
  "http://www.w3.org/Graphics/SVG/1.1/DTD/svg11.dtd">
<!-- Created with matplotlib (http://matplotlib.org/) -->
<svg height="288pt" version="1.1" viewBox="0 0 432 288" width="432pt" xmlns="http://www.w3.org/2000/svg" xmlns:xlink="http://www.w3.org/1999/xlink">
 <defs>
  <style type="text/css">
*{stroke-linecap:butt;stroke-linejoin:round;}
  </style>
 </defs>
 <g id="figure_1">
  <g id="patch_1">
   <path d="M 0 288 
L 432 288 
L 432 0 
L 0 0 
z
" style="fill:#ffffff;"/>
  </g>
  <g id="axes_1">
   <g id="patch_2">
    <path d="M 54 252 
L 388.8 252 
L 388.8 28.8 
L 54 28.8 
z
" style="fill:#ffffff;"/>
   </g>
   <g id="patch_3">
    <path clip-path="url(#p82e12c0bf4)" d="M 54 252 
L 54 249.402875 
L 54.6696 249.402875 
L 54.6696 246.93306 
L 55.3392 246.93306 
L 55.3392 245.099795 
L 56.0088 245.099795 
L 56.0088 243.444764 
L 56.6784 243.444764 
L 56.6784 242.120739 
L 57.348 242.120739 
L 57.348 238.988912 
L 58.0176 238.988912 
L 58.0176 237.944969 
L 58.6872 237.944969 
L 58.6872 237.104723 
L 59.3568 237.104723 
L 59.3568 236.748255 
L 60.0264 236.748255 
L 60.0264 236.239014 
L 60.696 236.239014 
L 60.696 235.322382 
L 61.3656 235.322382 
L 61.3656 234.634908 
L 62.0352 234.634908 
L 62.0352 233.871047 
L 62.7048 233.871047 
L 62.7048 233.030801 
L 63.3744 233.030801 
L 63.3744 231.986858 
L 64.044 231.986858 
L 64.044 229.771663 
L 64.7136 229.771663 
L 64.7136 228.574949 
L 65.3832 228.574949 
L 65.3832 227.531006 
L 66.0528 227.531006 
L 66.0528 226.385216 
L 66.7224 226.385216 
L 66.7224 225.290349 
L 67.392 225.290349 
L 67.392 223.27885 
L 68.0616 223.27885 
L 68.0616 222.795072 
L 68.7312 222.795072 
L 68.7312 221.878439 
L 69.4008 221.878439 
L 69.4008 220.758111 
L 70.0704 220.758111 
L 70.0704 220.248871 
L 70.74 220.248871 
L 70.74 218.950308 
L 71.4096 218.950308 
L 71.4096 218.415606 
L 72.0792 218.415606 
L 72.0792 218.160986 
L 72.7488 218.160986 
L 72.7488 217.651745 
L 73.4184 217.651745 
L 73.4184 216.989733 
L 74.088 216.989733 
L 74.088 215.360164 
L 74.7576 215.360164 
L 74.7576 214.54538 
L 75.4272 214.54538 
L 75.4272 213.756057 
L 76.0968 213.756057 
L 76.0968 213.043121 
L 76.7664 213.043121 
L 76.7664 212.279261 
L 77.436 212.279261 
L 77.436 210.87885 
L 78.1056 210.87885 
L 78.1056 210.064066 
L 78.7752 210.064066 
L 78.7752 209.554825 
L 79.4448 209.554825 
L 79.4448 208.612731 
L 80.1144 208.612731 
L 80.1144 207.747023 
L 80.784 207.747023 
L 80.784 206.346612 
L 81.4536 206.346612 
L 81.4536 205.735524 
L 82.1232 205.735524 
L 82.1232 204.767967 
L 82.7928 204.767967 
L 82.7928 204.309651 
L 83.4624 204.309651 
L 83.4624 203.851335 
L 84.132 203.851335 
L 84.132 202.552772 
L 84.8016 202.552772 
L 84.8016 202.221766 
L 85.4712 202.221766 
L 85.4712 201.737988 
L 86.1408 201.737988 
L 86.1408 201.126899 
L 86.8104 201.126899 
L 86.8104 199.981109 
L 87.48 199.981109 
L 87.48 198.045996 
L 88.1496 198.045996 
L 88.1496 197.33306 
L 88.8192 197.33306 
L 88.8192 196.849281 
L 89.4888 196.849281 
L 89.4888 196.238193 
L 90.1584 196.238193 
L 90.1584 195.627105 
L 90.828 195.627105 
L 90.828 194.073922 
L 91.4976 194.073922 
L 91.4976 193.131828 
L 92.1672 193.131828 
L 92.1672 191.578645 
L 92.8368 191.578645 
L 92.8368 189.898152 
L 93.5064 189.898152 
L 93.5064 188.803285 
L 94.176 188.803285 
L 94.176 186.995483 
L 94.8456 186.995483 
L 94.8456 186.20616 
L 95.5152 186.20616 
L 95.5152 185.493224 
L 96.1848 185.493224 
L 96.1848 184.729363 
L 96.8544 184.729363 
L 96.8544 184.041889 
L 97.524 184.041889 
L 97.524 182.896099 
L 98.1936 182.896099 
L 98.1936 181.90308 
L 98.8632 181.90308 
L 98.8632 181.062834 
L 99.5328 181.062834 
L 99.5328 180.731828 
L 100.2024 180.731828 
L 100.2024 180.273511 
L 100.872 180.273511 
L 100.872 179.433265 
L 101.5416 179.433265 
L 101.5416 179.153183 
L 102.2112 179.153183 
L 102.2112 178.847639 
L 102.8808 178.847639 
L 102.8808 178.516632 
L 103.5504 178.516632 
L 103.5504 178.211088 
L 104.22 178.211088 
L 104.22 177.676386 
L 104.8896 177.676386 
L 104.8896 177.549076 
L 105.5592 177.549076 
L 105.5592 177.396304 
L 106.2288 177.396304 
L 106.2288 177.21807 
L 106.8984 177.21807 
L 106.8984 176.988912 
L 107.568 176.988912 
L 107.568 176.301437 
L 108.9072 176.250513 
L 108.9072 175.894045 
L 109.5768 175.894045 
L 109.5768 175.410267 
L 110.2464 175.410267 
L 110.2464 174.570021 
L 110.916 174.570021 
L 110.916 173.577002 
L 111.5856 173.577002 
L 111.5856 172.991376 
L 112.2552 172.991376 
L 112.2552 172.66037 
L 112.9248 172.66037 
L 112.9248 172.354825 
L 113.5944 172.354825 
L 113.5944 171.438193 
L 114.264 171.438193 
L 114.264 170.470637 
L 114.9336 170.470637 
L 114.9336 170.063244 
L 115.6032 170.063244 
L 115.6032 169.554004 
L 116.2728 169.554004 
L 116.2728 169.350308 
L 116.9424 169.350308 
L 116.9424 169.095688 
L 117.612 169.095688 
L 117.612 168.535524 
L 118.2816 168.535524 
L 118.2816 168.382752 
L 118.9512 168.382752 
L 118.9512 167.822587 
L 119.6208 167.822587 
L 119.6208 167.415195 
L 120.2904 167.415195 
L 120.2904 166.982341 
L 120.96 166.982341 
L 120.96 166.269405 
L 121.6296 166.269405 
L 121.6296 165.887474 
L 122.2992 165.887474 
L 122.2992 165.250924 
L 122.9688 165.250924 
L 122.9688 164.843532 
L 123.6384 164.843532 
L 123.6384 164.410678 
L 124.308 164.410678 
L 124.308 163.315811 
L 124.9776 163.315811 
L 124.9776 162.857495 
L 125.6472 162.857495 
L 125.6472 162.093634 
L 126.3168 162.093634 
L 126.3168 161.253388 
L 126.9864 161.253388 
L 126.9864 160.540452 
L 127.656 160.540452 
L 127.656 159.725667 
L 128.3256 159.725667 
L 128.3256 158.859959 
L 128.9952 158.859959 
L 128.9952 158.070637 
L 129.6648 158.070637 
L 129.6648 157.561396 
L 130.3344 157.561396 
L 130.3344 156.950308 
L 131.004 156.950308 
L 131.004 156.059138 
L 131.6736 156.059138 
L 131.6736 155.651745 
L 132.3432 155.651745 
L 132.3432 155.448049 
L 133.0128 155.448049 
L 133.0128 155.244353 
L 133.6824 155.244353 
L 133.6824 154.887885 
L 134.352 154.887885 
L 134.352 154.276797 
L 135.0216 154.276797 
L 135.0216 153.43655 
L 135.6912 153.43655 
L 135.6912 152.978234 
L 136.3608 152.978234 
L 136.3608 152.723614 
L 137.0304 152.723614 
L 137.0304 152.239836 
L 137.7 152.239836 
L 137.7 151.297741 
L 138.3696 151.297741 
L 138.3696 150.941273 
L 139.0392 150.941273 
L 139.0392 150.788501 
L 139.7088 150.788501 
L 139.7088 150.304723 
L 140.3784 150.304723 
L 140.3784 149.948255 
L 141.048 149.948255 
L 141.048 149.38809 
L 141.7176 149.38809 
L 141.7176 149.00616 
L 142.3872 149.00616 
L 142.3872 148.75154 
L 143.0568 148.75154 
L 143.0568 148.598768 
L 143.7264 148.598768 
L 143.7264 148.191376 
L 144.396 148.191376 
L 144.396 147.071047 
L 145.0656 147.071047 
L 145.0656 145.874333 
L 145.7352 145.874333 
L 145.7352 145.645175 
L 146.4048 145.645175 
L 146.4048 145.288706 
L 147.0744 145.288706 
L 147.0744 144.9577 
L 147.744 144.9577 
L 147.744 143.55729 
L 148.4136 143.55729 
L 148.4136 142.920739 
L 149.0832 142.920739 
L 149.0832 142.589733 
L 149.7528 142.589733 
L 149.7528 141.851335 
L 150.4224 141.851335 
L 150.4224 141.011088 
L 151.092 141.011088 
L 151.092 138.719507 
L 151.7616 138.719507 
L 151.7616 137.777413 
L 152.4312 137.777413 
L 152.4312 137.344559 
L 153.1008 137.344559 
L 153.1008 136.60616 
L 153.7704 136.60616 
L 153.7704 136.22423 
L 154.44 136.22423 
L 154.44 134.925667 
L 155.1096 134.925667 
L 155.1096 134.059959 
L 155.7792 134.059959 
L 155.7792 133.372485 
L 156.4488 133.372485 
L 156.4488 132.837782 
L 157.1184 132.837782 
L 157.1184 131.972074 
L 157.788 131.972074 
L 157.788 130.749897 
L 158.4576 130.749897 
L 158.4576 130.189733 
L 159.1272 130.189733 
L 159.1272 129.655031 
L 159.7968 129.655031 
L 159.7968 128.432854 
L 160.4664 128.432854 
L 160.4664 127.592608 
L 161.136 127.592608 
L 161.136 126.064887 
L 161.8056 126.064887 
L 161.8056 124.639014 
L 162.4752 124.639014 
L 162.4752 123.493224 
L 163.1448 123.493224 
L 163.1448 122.627515 
L 163.8144 122.627515 
L 163.8144 121.354415 
L 164.484 121.354415 
L 164.484 119.317454 
L 165.1536 119.317454 
L 165.1536 117.840657 
L 165.8232 117.840657 
L 165.8232 116.389322 
L 166.4928 116.389322 
L 166.4928 115.523614 
L 167.1624 115.523614 
L 167.1624 114.326899 
L 167.832 114.326899 
L 167.832 112.264476 
L 168.5016 112.264476 
L 168.5016 111.29692 
L 169.1712 111.29692 
L 169.1712 109.463655 
L 169.8408 109.463655 
L 169.8408 108.470637 
L 170.5104 108.470637 
L 170.5104 107.452156 
L 171.18 107.452156 
L 171.18 105.797125 
L 171.8496 105.797125 
L 171.8496 104.600411 
L 172.5192 104.600411 
L 172.5192 103.70924 
L 173.1888 103.70924 
L 173.1888 102.94538 
L 173.8584 102.94538 
L 173.8584 102.18152 
L 174.528 102.18152 
L 174.528 100.348255 
L 175.1976 100.348255 
L 175.1976 99.27885 
L 175.8672 99.27885 
L 175.8672 98.413142 
L 176.5368 98.413142 
L 176.5368 97.547433 
L 177.2064 97.547433 
L 177.2064 96.809035 
L 177.876 96.809035 
L 177.876 95.434086 
L 178.5456 95.434086 
L 178.5456 94.84846 
L 179.2152 94.84846 
L 179.2152 93.931828 
L 179.8848 93.931828 
L 179.8848 93.473511 
L 180.5544 93.473511 
L 180.5544 92.811499 
L 181.224 92.811499 
L 181.224 91.487474 
L 181.8936 91.487474 
L 181.8936 90.749076 
L 182.5632 90.749076 
L 182.5632 89.679671 
L 183.2328 89.679671 
L 183.2328 88.813963 
L 183.9024 88.813963 
L 183.9024 88.253799 
L 184.572 88.253799 
L 184.572 87.057084 
L 185.2416 87.057084 
L 185.2416 86.2423 
L 185.9112 86.2423 
L 185.9112 85.783984 
L 186.5808 85.783984 
L 186.5808 85.121971 
L 187.2504 85.121971 
L 187.2504 84.485421 
L 187.92 84.485421 
L 187.92 82.83039 
L 188.5896 82.83039 
L 188.5896 82.091992 
L 189.2592 82.091992 
L 189.2592 81.455441 
L 189.9288 81.455441 
L 189.9288 80.818891 
L 190.5984 80.818891 
L 190.5984 80.105955 
L 191.268 80.105955 
L 191.268 79.342094 
L 191.9376 79.342094 
L 191.9376 78.985626 
L 192.6072 78.985626 
L 192.6072 78.501848 
L 193.2768 78.501848 
L 193.2768 78.221766 
L 193.9464 78.221766 
L 193.9464 77.610678 
L 194.616 77.610678 
L 194.616 76.515811 
L 195.2856 76.515811 
L 195.2856 76.235729 
L 195.9552 76.235729 
L 195.9552 75.701027 
L 196.6248 75.701027 
L 196.6248 74.937166 
L 197.2944 74.937166 
L 197.2944 74.326078 
L 197.964 74.326078 
L 197.964 73.46037 
L 198.6336 73.46037 
L 198.6336 72.976591 
L 199.3032 72.976591 
L 199.3032 72.340041 
L 199.9728 72.340041 
L 199.9728 71.627105 
L 200.6424 71.627105 
L 200.6424 70.914168 
L 201.312 70.914168 
L 201.312 69.360986 
L 201.9816 69.360986 
L 201.9816 68.826283 
L 202.6512 68.826283 
L 202.6512 68.189733 
L 203.3208 68.189733 
L 203.3208 67.527721 
L 203.9904 67.527721 
L 203.9904 67.145791 
L 204.66 67.145791 
L 204.66 66.203696 
L 205.3296 66.203696 
L 205.3296 65.74538 
L 205.9992 65.74538 
L 205.9992 65.261602 
L 206.6688 65.261602 
L 206.6688 64.777823 
L 207.3384 64.777823 
L 207.3384 64.039425 
L 208.008 64.039425 
L 208.008 63.173717 
L 208.6776 63.173717 
L 208.6776 62.817248 
L 209.3472 62.817248 
L 209.3472 62.358932 
L 210.0168 62.358932 
L 210.0168 61.900616 
L 210.6864 61.900616 
L 210.6864 61.391376 
L 211.356 61.391376 
L 211.356 60.525667 
L 212.0256 60.525667 
L 212.0256 59.838193 
L 212.6952 59.838193 
L 212.6952 59.481725 
L 213.3648 59.481725 
L 213.3648 59.048871 
L 214.0344 59.048871 
L 214.0344 58.743326 
L 214.704 58.743326 
L 214.704 58.106776 
L 215.3736 58.106776 
L 215.3736 57.77577 
L 216.0432 57.77577 
L 216.0432 57.622998 
L 216.7128 57.622998 
L 216.7128 57.215606 
L 217.3824 57.215606 
L 217.3824 56.859138 
L 218.052 56.859138 
L 218.052 56.095277 
L 218.7216 56.095277 
L 218.7216 55.866119 
L 219.3912 55.866119 
L 219.3912 55.356879 
L 220.0608 55.356879 
L 220.0608 54.949487 
L 220.7304 54.949487 
L 220.7304 54.593018 
L 221.4 54.593018 
L 221.4 53.829158 
L 222.0696 53.829158 
L 222.0696 53.319918 
L 222.7392 53.319918 
L 222.7392 53.192608 
L 223.4088 53.192608 
L 223.4088 52.785216 
L 224.0784 52.785216 
L 224.0784 52.505133 
L 224.748 52.505133 
L 224.748 52.021355 
L 225.4176 52.021355 
L 225.4176 51.639425 
L 226.0872 51.639425 
L 226.0872 51.206571 
L 226.7568 51.206571 
L 226.7568 50.773717 
L 227.4264 50.773717 
L 227.4264 50.289938 
L 228.096 50.289938 
L 228.096 49.653388 
L 228.7656 49.653388 
L 228.7656 49.322382 
L 229.4352 49.322382 
L 229.4352 48.991376 
L 230.1048 48.991376 
L 230.1048 48.634908 
L 230.7744 48.634908 
L 230.7744 48.252977 
L 231.444 48.252977 
L 231.444 47.387269 
L 232.1136 47.387269 
L 232.1136 47.081725 
L 232.7832 47.081725 
L 232.7832 46.725257 
L 233.4528 46.725257 
L 233.4528 46.343326 
L 234.1224 46.343326 
L 234.1224 45.961396 
L 234.792 45.961396 
L 234.792 45.401232 
L 235.4616 45.401232 
L 235.4616 45.172074 
L 236.1312 45.172074 
L 236.1312 44.942916 
L 236.8008 44.942916 
L 236.8008 44.637372 
L 237.4704 44.637372 
L 237.4704 44.408214 
L 238.14 44.408214 
L 238.14 43.593429 
L 238.8096 43.593429 
L 238.8096 43.211499 
L 239.4792 43.211499 
L 239.4792 43.007803 
L 240.1488 43.007803 
L 240.1488 42.447639 
L 240.8184 42.447639 
L 240.8184 42.09117 
L 241.488 42.09117 
L 241.488 41.352772 
L 242.1576 41.352772 
L 242.1576 41.07269 
L 242.8272 41.07269 
L 242.8272 40.665298 
L 243.4968 40.665298 
L 243.4968 40.385216 
L 244.1664 40.385216 
L 244.1664 40.156057 
L 244.836 40.156057 
L 244.836 39.799589 
L 245.5056 39.799589 
L 245.5056 39.621355 
L 246.1752 39.621355 
L 246.1752 39.366735 
L 246.8448 39.366735 
L 246.8448 39.213963 
L 247.5144 39.213963 
L 247.5144 39.061191 
L 248.184 39.061191 
L 248.184 38.806571 
L 248.8536 38.806571 
L 248.8536 38.399179 
L 249.5232 38.399179 
L 249.5232 38.144559 
L 250.1928 38.144559 
L 250.1928 37.991786 
L 250.8624 37.991786 
L 250.8624 37.711704 
L 251.532 37.711704 
L 251.532 37.40616 
L 252.2016 37.40616 
L 252.2016 37.227926 
L 253.5408 37.126078 
L 253.5408 36.845996 
L 254.88 36.76961 
L 254.88 36.464066 
L 256.2192 36.438604 
L 256.2192 36.311294 
L 256.8888 36.311294 
L 256.8888 36.183984 
L 257.5584 36.183984 
L 257.5584 36.031211 
L 258.228 36.031211 
L 258.228 35.572895 
L 258.8976 35.572895 
L 258.8976 35.369199 
L 259.5672 35.369199 
L 259.5672 35.012731 
L 260.2368 35.012731 
L 260.2368 34.528953 
L 261.576 34.452567 
L 261.576 34.299795 
L 262.2456 34.299795 
L 262.2456 34.121561 
L 262.9152 34.121561 
L 262.9152 33.968789 
L 263.5848 33.968789 
L 263.5848 33.841478 
L 264.924 33.73963 
L 264.924 33.535934 
L 266.2632 33.459548 
L 266.2632 33.383162 
L 268.272 33.332238 
L 268.272 33.128542 
L 270.9504 33.026694 
L 270.9504 32.97577 
L 271.62 32.97577 
L 271.62 32.797536 
L 272.2896 32.797536 
L 272.2896 32.644764 
L 274.2984 32.59384 
L 274.2984 32.517454 
L 276.9768 32.415606 
L 276.9768 32.390144 
L 278.316 32.313758 
L 278.316 32.110062 
L 280.3248 32.008214 
L 280.3248 31.982752 
L 281.664 31.931828 
L 281.664 31.804517 
L 283.6728 31.753593 
L 283.6728 31.651745 
L 286.3512 31.549897 
L 286.3512 31.524435 
L 289.0296 31.448049 
L 289.0296 31.397125 
L 291.708 31.320739 
L 291.708 31.218891 
L 297.0648 31.117043 
L 297.0648 31.091581 
L 300.4128 30.989733 
L 300.4128 30.964271 
L 307.1088 30.862423 
L 307.1088 30.836961 
L 311.796 30.735113 
L 311.796 30.684189 
L 313.8048 30.607803 
L 313.8048 30.556879 
L 317.1528 30.480493 
L 317.1528 30.429569 
L 319.8312 30.327721 
L 319.8312 30.302259 
L 325.188 30.200411 
L 325.188 30.149487 
L 329.2056 30.047639 
L 329.2056 30.022177 
L 336.5712 29.920329 
L 336.5712 29.894867 
L 342.5976 29.793018 
L 342.5976 29.767556 
L 355.32 29.665708 
L 355.32 29.614784 
L 363.3552 29.512936 
L 363.3552 29.487474 
L 372.06 29.385626 
L 372.06 29.30924 
L 379.4256 29.207392 
L 379.4256 29.156468 
L 382.104 29.080082 
L 382.104 28.952772 
L 386.1216 28.876386 
L 386.1216 28.825462 
L 388.8 28.8 
L 388.8 252 
L 388.8 252 
" style="fill:none;stroke:#008000;stroke-linejoin:miter;stroke-width:2;"/>
   </g>
   <g id="patch_4">
    <path clip-path="url(#p82e12c0bf4)" d="M 54 252 
L 54 246.747433 
L 54.6696 246.747433 
L 54.6696 239.857702 
L 55.3392 239.857702 
L 55.3392 235.969438 
L 56.0088 235.969438 
L 56.0088 233.871822 
L 56.6784 233.871822 
L 56.6784 231.279645 
L 57.348 231.279645 
L 57.348 223.025611 
L 58.0176 223.025611 
L 58.0176 220.075306 
L 58.6872 220.075306 
L 58.6872 218.455196 
L 59.3568 218.455196 
L 59.3568 216.971516 
L 60.0264 216.971516 
L 60.0264 215.095599 
L 60.696 215.095599 
L 60.696 213.117359 
L 61.3656 213.117359 
L 61.3656 212.26467 
L 62.0352 212.26467 
L 62.0352 209.757763 
L 62.7048 209.757763 
L 62.7048 208.120599 
L 63.3744 208.120599 
L 63.3744 205.119132 
L 64.044 205.119132 
L 64.044 198.536369 
L 64.7136 198.536369 
L 64.7136 196.33643 
L 65.3832 196.33643 
L 65.3832 194.613998 
L 66.0528 194.613998 
L 66.0528 192.669866 
L 66.7224 192.669866 
L 66.7224 189.71956 
L 67.392 189.71956 
L 67.392 182.215892 
L 68.0616 182.215892 
L 68.0616 180.288814 
L 68.7312 180.288814 
L 68.7312 178.361736 
L 69.4008 178.361736 
L 69.4008 177.338509 
L 70.0704 177.338509 
L 70.0704 175.513753 
L 70.74 175.513753 
L 70.74 172.461125 
L 71.4096 172.461125 
L 71.4096 171.420844 
L 72.0792 171.420844 
L 72.0792 170.602262 
L 72.7488 170.602262 
L 72.7488 169.664303 
L 73.4184 169.664303 
L 73.4184 168.709291 
L 74.088 168.709291 
L 74.088 167.089181 
L 74.7576 167.089181 
L 74.7576 165.997738 
L 75.4272 165.997738 
L 75.4272 164.889242 
L 76.0968 164.889242 
L 76.0968 163.388509 
L 76.7664 163.388509 
L 76.7664 162.45055 
L 77.436 162.45055 
L 77.436 159.807213 
L 78.1056 159.807213 
L 78.1056 159.056846 
L 78.7752 159.056846 
L 78.7752 158.511125 
L 79.4448 158.511125 
L 79.4448 157.607274 
L 80.1144 157.607274 
L 80.1144 157.027445 
L 80.784 157.027445 
L 80.784 155.185636 
L 81.4536 155.185636 
L 81.4536 154.094193 
L 82.1232 154.094193 
L 82.1232 152.951589 
L 82.7928 152.951589 
L 82.7928 152.439976 
L 83.4624 152.439976 
L 83.4624 151.331479 
L 84.132 151.331479 
L 84.132 149.967176 
L 84.8016 149.967176 
L 84.8016 149.421455 
L 85.4712 149.421455 
L 85.4712 148.091259 
L 86.1408 148.091259 
L 86.1408 147.102139 
L 86.8104 147.102139 
L 86.8104 145.328545 
L 87.48 145.328545 
L 87.48 143.28209 
L 88.1496 143.28209 
L 88.1496 142.310024 
L 88.8192 142.310024 
L 88.8192 141.218582 
L 89.4888 141.218582 
L 89.4888 140.434108 
L 90.1584 140.434108 
L 90.1584 139.786064 
L 90.828 139.786064 
L 90.828 137.756663 
L 91.4976 137.756663 
L 91.4976 136.80165 
L 92.1672 136.80165 
L 92.1672 135.335024 
L 92.8368 135.335024 
L 92.8368 133.527323 
L 93.5064 133.527323 
L 93.5064 132.606418 
L 94.176 132.606418 
L 94.176 131.190954 
L 94.8456 131.190954 
L 94.8456 130.423533 
L 95.5152 130.423533 
L 95.5152 129.161553 
L 96.1848 129.161553 
L 96.1848 128.462347 
L 96.8544 128.462347 
L 96.8544 127.643765 
L 97.524 127.643765 
L 97.524 126.484108 
L 98.1936 126.484108 
L 98.1936 126.057763 
L 98.8632 126.057763 
L 98.8632 125.904279 
L 99.5328 125.904279 
L 99.5328 125.750795 
L 100.2024 125.750795 
L 100.2024 125.392665 
L 100.872 125.392665 
L 100.872 125.136858 
L 101.5416 125.136858 
L 101.5416 124.1989 
L 102.2112 124.1989 
L 102.2112 123.363264 
L 102.8808 123.363264 
L 102.8808 123.07335 
L 104.22 123.022188 
L 104.22 122.493521 
L 104.8896 122.493521 
L 104.8896 121.998961 
L 105.5592 121.998961 
L 105.5592 121.760208 
L 106.2288 121.760208 
L 106.2288 121.504401 
L 106.8984 121.504401 
L 106.8984 120.174205 
L 107.568 120.174205 
L 107.568 119.287408 
L 108.2376 119.287408 
L 108.2376 118.912225 
L 108.9072 118.912225 
L 108.9072 117.871944 
L 109.5768 117.871944 
L 109.5768 117.377384 
L 110.2464 117.377384 
L 110.2464 117.070416 
L 110.916 117.070416 
L 110.916 116.661125 
L 111.5856 116.661125 
L 111.5856 116.337103 
L 112.2552 116.337103 
L 112.2552 116.081296 
L 112.9248 116.081296 
L 112.9248 115.041015 
L 113.5944 115.041015 
L 113.5944 114.375917 
L 114.264 114.375917 
L 114.264 112.704645 
L 114.9336 112.704645 
L 114.9336 111.817848 
L 115.6032 111.817848 
L 115.6032 111.152751 
L 116.2728 111.152751 
L 116.2728 110.692298 
L 116.9424 110.692298 
L 116.9424 110.231846 
L 117.612 110.231846 
L 117.612 108.986919 
L 118.2816 108.986919 
L 118.2816 108.492359 
L 118.9512 108.492359 
L 118.9512 107.980746 
L 119.6208 107.980746 
L 119.6208 107.605562 
L 120.2904 107.605562 
L 120.2904 107.452078 
L 120.96 107.452078 
L 120.96 107.025733 
L 121.6296 107.025733 
L 121.6296 106.599389 
L 122.2992 106.599389 
L 122.2992 106.087775 
L 122.9688 106.087775 
L 122.9688 105.712592 
L 123.6384 105.712592 
L 123.6384 104.842848 
L 124.308 104.842848 
L 124.308 103.785513 
L 124.9776 103.785513 
L 124.9776 103.614976 
L 126.3168 103.529707 
L 126.3168 103.069254 
L 126.9864 103.069254 
L 126.9864 102.949878 
L 127.656 102.949878 
L 127.656 102.352995 
L 128.3256 102.352995 
L 128.3256 101.977812 
L 128.9952 101.977812 
L 128.9952 101.670844 
L 129.6648 101.670844 
L 129.6648 101.397983 
L 130.3344 101.397983 
L 130.3344 101.244499 
L 131.004 101.244499 
L 131.004 101.039853 
L 131.6736 101.039853 
L 131.6736 100.835208 
L 132.3432 100.835208 
L 132.3432 100.52824 
L 133.0128 100.52824 
L 133.0128 100.17011 
L 133.6824 100.17011 
L 133.6824 99.829034 
L 134.352 99.829034 
L 134.352 98.652323 
L 135.0216 98.652323 
L 135.0216 98.498839 
L 135.6912 98.498839 
L 135.6912 98.225978 
L 136.3608 98.225978 
L 136.3608 97.884902 
L 137.0304 97.884902 
L 137.0304 97.270966 
L 137.7 97.270966 
L 137.7 96.810513 
L 138.3696 96.810513 
L 138.3696 96.657029 
L 139.0392 96.657029 
L 139.0392 96.2989 
L 139.7088 96.2989 
L 139.7088 95.974878 
L 140.3784 95.974878 
L 140.3784 95.753178 
L 141.048 95.753178 
L 141.048 95.44621 
L 141.7176 95.44621 
L 141.7176 95.071027 
L 143.0568 95.002812 
L 143.0568 94.917543 
L 143.7264 94.917543 
L 143.7264 94.542359 
L 144.396 94.542359 
L 144.396 93.450917 
L 145.0656 93.450917 
L 145.0656 92.683496 
L 145.7352 92.683496 
L 145.7352 92.512958 
L 146.4048 92.512958 
L 146.4048 92.240098 
L 147.0744 92.240098 
L 147.0744 91.762592 
L 147.744 91.762592 
L 147.744 90.705257 
L 148.4136 90.705257 
L 148.4136 90.466504 
L 149.0832 90.466504 
L 149.0832 90.210697 
L 149.7528 90.210697 
L 149.7528 89.903729 
L 150.4224 89.903729 
L 150.4224 88.82934 
L 151.092 88.82934 
L 151.092 87.618521 
L 151.7616 87.618521 
L 151.7616 87.20923 
L 152.4312 87.20923 
L 152.4312 86.970477 
L 153.1008 86.970477 
L 153.1008 86.663509 
L 153.7704 86.663509 
L 153.7704 86.186002 
L 154.44 86.186002 
L 154.44 84.872861 
L 155.1096 84.872861 
L 155.1096 84.429462 
L 155.7792 84.429462 
L 155.7792 84.003117 
L 156.4488 84.003117 
L 156.4488 83.440342 
L 157.1184 83.440342 
L 157.1184 82.775244 
L 157.788 82.775244 
L 157.788 81.85434 
L 158.4576 81.85434 
L 158.4576 81.376834 
L 159.1272 81.376834 
L 159.1272 80.336553 
L 159.7968 80.336553 
L 159.7968 79.432702 
L 160.4664 79.432702 
L 160.4664 78.324205 
L 161.136 78.324205 
L 161.136 77.556785 
L 161.8056 77.556785 
L 161.8056 76.874633 
L 162.4752 76.874633 
L 162.4752 76.311858 
L 163.1448 76.311858 
L 163.1448 75.936675 
L 163.8144 75.936675 
L 163.8144 75.288631 
L 164.484 75.288631 
L 164.484 74.316565 
L 165.1536 74.316565 
L 165.1536 73.924328 
L 165.8232 73.924328 
L 165.8232 73.600306 
L 166.4928 73.600306 
L 166.4928 73.105746 
L 167.1624 73.105746 
L 167.1624 72.389487 
L 167.832 72.389487 
L 167.832 71.468582 
L 168.5016 71.468582 
L 168.5016 71.059291 
L 169.1712 71.059291 
L 169.1712 70.65 
L 169.8408 70.65 
L 169.8408 70.343032 
L 170.5104 70.343032 
L 170.5104 69.916687 
L 171.18 69.916687 
L 171.18 69.012836 
L 171.8496 69.012836 
L 171.8496 68.245416 
L 172.5192 68.245416 
L 172.5192 67.256296 
L 173.1888 67.256296 
L 173.1888 66.625306 
L 173.8584 66.625306 
L 173.8584 66.113692 
L 174.528 66.113692 
L 174.528 64.902873 
L 175.1976 64.902873 
L 175.1976 64.152506 
L 175.8672 64.152506 
L 175.8672 63.606785 
L 176.5368 63.606785 
L 176.5368 63.04401 
L 177.2064 63.04401 
L 177.2064 62.634719 
L 177.876 62.634719 
L 177.876 61.679707 
L 178.5456 61.679707 
L 178.5456 61.458007 
L 179.2152 61.458007 
L 179.2152 60.997555 
L 179.8848 60.997555 
L 179.8848 60.502995 
L 180.5544 60.502995 
L 180.5544 59.991381 
L 181.224 59.991381 
L 181.224 59.002262 
L 181.8936 59.002262 
L 181.8936 58.524756 
L 182.5632 58.524756 
L 182.5632 58.234841 
L 183.2328 58.234841 
L 183.2328 57.876711 
L 183.9024 57.876711 
L 183.9024 57.552689 
L 184.572 57.552689 
L 184.572 56.887592 
L 185.2416 56.887592 
L 185.2416 56.444193 
L 185.9112 56.444193 
L 185.9112 56.051956 
L 186.5808 56.051956 
L 186.5808 55.71088 
L 187.2504 55.71088 
L 187.2504 55.540342 
L 187.92 55.540342 
L 187.92 54.926406 
L 188.5896 54.926406 
L 188.5896 54.619438 
L 189.2592 54.619438 
L 189.2592 54.329523 
L 189.9288 54.329523 
L 189.9288 54.141932 
L 190.5984 54.141932 
L 190.5984 54.022555 
L 191.268 54.022555 
L 191.268 53.647372 
L 191.9376 53.647372 
L 191.9376 53.050489 
L 192.6072 53.050489 
L 192.6072 52.914059 
L 193.2768 52.914059 
L 193.2768 52.624144 
L 194.616 52.521822 
L 194.616 51.890831 
L 195.2856 51.890831 
L 195.2856 51.566809 
L 195.9552 51.566809 
L 195.9552 51.157518 
L 196.6248 51.157518 
L 196.6248 50.85055 
L 197.2944 50.85055 
L 197.2944 50.731174 
L 197.964 50.731174 
L 197.964 50.304829 
L 198.6336 50.304829 
L 198.6336 49.571516 
L 199.3032 49.571516 
L 199.3032 49.213386 
L 199.9728 49.213386 
L 199.9728 48.991687 
L 200.6424 48.991687 
L 200.6424 48.616504 
L 201.312 48.616504 
L 201.312 48.10489 
L 201.9816 48.10489 
L 201.9816 47.832029 
L 202.6512 47.832029 
L 202.6512 47.405685 
L 203.3208 47.405685 
L 203.3208 47.11577 
L 203.9904 47.11577 
L 203.9904 46.911125 
L 204.66 46.911125 
L 204.66 46.672372 
L 205.3296 46.672372 
L 205.3296 46.365403 
L 205.9992 46.365403 
L 205.9992 46.041381 
L 206.6688 46.041381 
L 206.6688 45.785575 
L 207.3384 45.785575 
L 207.3384 45.63209 
L 208.008 45.63209 
L 208.008 45.325122 
L 209.3472 45.2228 
L 209.3472 45.103423 
L 210.0168 45.103423 
L 210.0168 44.966993 
L 210.6864 44.966993 
L 210.6864 44.677078 
L 211.356 44.677078 
L 211.356 44.318949 
L 212.0256 44.318949 
L 212.0256 44.165465 
L 212.6952 44.165465 
L 212.6952 44.01198 
L 213.3648 44.01198 
L 213.3648 43.73912 
L 214.0344 43.73912 
L 214.0344 43.551528 
L 214.704 43.551528 
L 214.704 43.24456 
L 215.3736 43.24456 
L 215.3736 43.10813 
L 217.3824 43.005807 
L 217.3824 42.88643 
L 218.052 42.88643 
L 218.052 42.732946 
L 218.7216 42.732946 
L 218.7216 42.579462 
L 220.0608 42.477139 
L 220.0608 42.289548 
L 220.7304 42.289548 
L 220.7304 42.153117 
L 221.4 42.153117 
L 221.4 41.812042 
L 222.0696 41.812042 
L 222.0696 41.658557 
L 222.7392 41.658557 
L 222.7392 41.453912 
L 223.4088 41.453912 
L 223.4088 41.26632 
L 224.748 41.181051 
L 224.748 40.379523 
L 226.0872 40.311308 
L 226.0872 40.243093 
L 226.7568 40.243093 
L 226.7568 40.055501 
L 227.4264 40.055501 
L 227.4264 39.919071 
L 228.096 39.919071 
L 228.096 39.424511 
L 228.7656 39.424511 
L 228.7656 39.253973 
L 229.4352 39.253973 
L 229.4352 39.01522 
L 230.1048 39.01522 
L 230.1048 38.776467 
L 230.7744 38.776467 
L 230.7744 38.640037 
L 231.444 38.640037 
L 231.444 38.264853 
L 232.7832 38.179584 
L 232.7832 37.991993 
L 233.4528 37.991993 
L 233.4528 37.616809 
L 234.1224 37.616809 
L 234.1224 37.446271 
L 234.792 37.446271 
L 234.792 37.190465 
L 235.4616 37.190465 
L 235.4616 36.951711 
L 236.1312 36.951711 
L 236.1312 36.76412 
L 236.8008 36.76412 
L 236.8008 36.576528 
L 237.4704 36.576528 
L 237.4704 36.371883 
L 238.14 36.371883 
L 238.14 36.047861 
L 238.8096 36.047861 
L 238.8096 35.928484 
L 240.1488 35.860269 
L 240.1488 35.740892 
L 240.8184 35.740892 
L 240.8184 35.485086 
L 241.488 35.485086 
L 241.488 35.195171 
L 242.1576 35.195171 
L 242.1576 34.990526 
L 243.4968 34.905257 
L 243.4968 34.802934 
L 244.836 34.700611 
L 244.836 34.29132 
L 246.1752 34.223105 
L 246.1752 34.086675 
L 247.5144 34.001406 
L 247.5144 33.950244 
L 248.184 33.950244 
L 248.184 33.626222 
L 249.5232 33.592115 
L 249.5232 33.455685 
L 250.1928 33.455685 
L 250.1928 33.233985 
L 251.532 33.199878 
L 251.532 32.841748 
L 252.8712 32.790587 
L 252.8712 32.654156 
L 253.5408 32.654156 
L 253.5408 32.53478 
L 254.2104 32.53478 
L 254.2104 32.381296 
L 254.88 32.381296 
L 254.88 32.17665 
L 256.2192 32.074328 
L 256.2192 31.972005 
L 258.228 31.869682 
L 258.228 31.665037 
L 259.5672 31.630929 
L 259.5672 31.511553 
L 260.2368 31.511553 
L 260.2368 31.392176 
L 260.9064 31.392176 
L 260.9064 31.170477 
L 261.576 31.170477 
L 261.576 31.0511 
L 263.5848 30.948778 
L 263.5848 30.91467 
L 264.924 30.846455 
L 264.924 30.692971 
L 267.6024 30.590648 
L 267.6024 30.488325 
L 269.6112 30.42011 
L 269.6112 30.368949 
L 271.62 30.317787 
L 271.62 30.232518 
L 274.968 30.130196 
L 274.968 30.113142 
L 278.316 30.010819 
L 278.316 29.959658 
L 281.664 29.874389 
L 281.664 29.823227 
L 292.3776 29.737958 
L 292.3776 29.686797 
L 301.752 29.601528 
L 301.752 29.567421 
L 314.4744 29.465098 
L 314.4744 29.448044 
L 324.5184 29.345721 
L 324.5184 29.328667 
L 347.9544 29.226345 
L 347.9544 29.209291 
L 355.9896 29.106968 
L 355.9896 29.089914 
L 368.712 28.987592 
L 368.712 28.970538 
L 383.4432 28.868215 
L 383.4432 28.851161 
L 388.8 28.8 
L 388.8 252 
L 388.8 252 
" style="fill:none;stroke:#0000ff;stroke-linejoin:miter;stroke-width:2;"/>
   </g>
   <g id="patch_5">
    <path d="M 54 252 
L 54 28.8 
" style="fill:none;stroke:#000000;stroke-linecap:square;stroke-linejoin:miter;"/>
   </g>
   <g id="patch_6">
    <path d="M 388.8 252 
L 388.8 28.8 
" style="fill:none;stroke:#000000;stroke-linecap:square;stroke-linejoin:miter;"/>
   </g>
   <g id="patch_7">
    <path d="M 54 252 
L 388.8 252 
" style="fill:none;stroke:#000000;stroke-linecap:square;stroke-linejoin:miter;"/>
   </g>
   <g id="patch_8">
    <path d="M 54 28.8 
L 388.8 28.8 
" style="fill:none;stroke:#000000;stroke-linecap:square;stroke-linejoin:miter;"/>
   </g>
   <g id="matplotlib.axis_1">
    <g id="xtick_1">
     <g id="line2d_1">
      <path clip-path="url(#p82e12c0bf4)" d="M 54 252 
L 54 28.8 
" style="fill:none;stroke:#000000;stroke-dasharray:1,3;stroke-dashoffset:0;stroke-width:0.5;"/>
     </g>
     <g id="line2d_2">
      <defs>
       <path d="M 0 0 
L 0 -4 
" id="m15d6ad32e5" style="stroke:#000000;stroke-width:0.5;"/>
      </defs>
      <g>
       <use style="stroke:#000000;stroke-width:0.5;" x="54" xlink:href="#m15d6ad32e5" y="252"/>
      </g>
     </g>
     <g id="line2d_3">
      <defs>
       <path d="M 0 0 
L 0 4 
" id="m16d379aaea" style="stroke:#000000;stroke-width:0.5;"/>
      </defs>
      <g>
       <use style="stroke:#000000;stroke-width:0.5;" x="54" xlink:href="#m16d379aaea" y="28.8"/>
      </g>
     </g>
     <g id="text_1">
      <!-- 0 -->
      <defs>
       <path d="M 31.78125 66.40625 
Q 24.171875 66.40625 20.328125 58.90625 
Q 16.5 51.421875 16.5 36.375 
Q 16.5 21.390625 20.328125 13.890625 
Q 24.171875 6.390625 31.78125 6.390625 
Q 39.453125 6.390625 43.28125 13.890625 
Q 47.125 21.390625 47.125 36.375 
Q 47.125 51.421875 43.28125 58.90625 
Q 39.453125 66.40625 31.78125 66.40625 
z
M 31.78125 74.21875 
Q 44.046875 74.21875 50.515625 64.515625 
Q 56.984375 54.828125 56.984375 36.375 
Q 56.984375 17.96875 50.515625 8.265625 
Q 44.046875 -1.421875 31.78125 -1.421875 
Q 19.53125 -1.421875 13.0625 8.265625 
Q 6.59375 17.96875 6.59375 36.375 
Q 6.59375 54.828125 13.0625 64.515625 
Q 19.53125 74.21875 31.78125 74.21875 
z
" id="DejaVuSans-30"/>
      </defs>
      <g transform="translate(50.81875 263.598437)scale(0.1 -0.1)">
       <use xlink:href="#DejaVuSans-30"/>
      </g>
     </g>
    </g>
    <g id="xtick_2">
     <g id="line2d_4">
      <path clip-path="url(#p82e12c0bf4)" d="M 109.8 252 
L 109.8 28.8 
" style="fill:none;stroke:#000000;stroke-dasharray:1,3;stroke-dashoffset:0;stroke-width:0.5;"/>
     </g>
     <g id="line2d_5">
      <g>
       <use style="stroke:#000000;stroke-width:0.5;" x="109.8" xlink:href="#m15d6ad32e5" y="252"/>
      </g>
     </g>
     <g id="line2d_6">
      <g>
       <use style="stroke:#000000;stroke-width:0.5;" x="109.8" xlink:href="#m16d379aaea" y="28.8"/>
      </g>
     </g>
     <g id="text_2">
      <!-- 100 -->
      <defs>
       <path d="M 12.40625 8.296875 
L 28.515625 8.296875 
L 28.515625 63.921875 
L 10.984375 60.40625 
L 10.984375 69.390625 
L 28.421875 72.90625 
L 38.28125 72.90625 
L 38.28125 8.296875 
L 54.390625 8.296875 
L 54.390625 0 
L 12.40625 0 
z
" id="DejaVuSans-31"/>
      </defs>
      <g transform="translate(100.25625 263.598437)scale(0.1 -0.1)">
       <use xlink:href="#DejaVuSans-31"/>
       <use x="63.623047" xlink:href="#DejaVuSans-30"/>
       <use x="127.246094" xlink:href="#DejaVuSans-30"/>
      </g>
     </g>
    </g>
    <g id="xtick_3">
     <g id="line2d_7">
      <path clip-path="url(#p82e12c0bf4)" d="M 165.6 252 
L 165.6 28.8 
" style="fill:none;stroke:#000000;stroke-dasharray:1,3;stroke-dashoffset:0;stroke-width:0.5;"/>
     </g>
     <g id="line2d_8">
      <g>
       <use style="stroke:#000000;stroke-width:0.5;" x="165.6" xlink:href="#m15d6ad32e5" y="252"/>
      </g>
     </g>
     <g id="line2d_9">
      <g>
       <use style="stroke:#000000;stroke-width:0.5;" x="165.6" xlink:href="#m16d379aaea" y="28.8"/>
      </g>
     </g>
     <g id="text_3">
      <!-- 200 -->
      <defs>
       <path d="M 19.1875 8.296875 
L 53.609375 8.296875 
L 53.609375 0 
L 7.328125 0 
L 7.328125 8.296875 
Q 12.9375 14.109375 22.625 23.890625 
Q 32.328125 33.6875 34.8125 36.53125 
Q 39.546875 41.84375 41.421875 45.53125 
Q 43.3125 49.21875 43.3125 52.78125 
Q 43.3125 58.59375 39.234375 62.25 
Q 35.15625 65.921875 28.609375 65.921875 
Q 23.96875 65.921875 18.8125 64.3125 
Q 13.671875 62.703125 7.8125 59.421875 
L 7.8125 69.390625 
Q 13.765625 71.78125 18.9375 73 
Q 24.125 74.21875 28.421875 74.21875 
Q 39.75 74.21875 46.484375 68.546875 
Q 53.21875 62.890625 53.21875 53.421875 
Q 53.21875 48.921875 51.53125 44.890625 
Q 49.859375 40.875 45.40625 35.40625 
Q 44.1875 33.984375 37.640625 27.21875 
Q 31.109375 20.453125 19.1875 8.296875 
z
" id="DejaVuSans-32"/>
      </defs>
      <g transform="translate(156.05625 263.598437)scale(0.1 -0.1)">
       <use xlink:href="#DejaVuSans-32"/>
       <use x="63.623047" xlink:href="#DejaVuSans-30"/>
       <use x="127.246094" xlink:href="#DejaVuSans-30"/>
      </g>
     </g>
    </g>
    <g id="xtick_4">
     <g id="line2d_10">
      <path clip-path="url(#p82e12c0bf4)" d="M 221.4 252 
L 221.4 28.8 
" style="fill:none;stroke:#000000;stroke-dasharray:1,3;stroke-dashoffset:0;stroke-width:0.5;"/>
     </g>
     <g id="line2d_11">
      <g>
       <use style="stroke:#000000;stroke-width:0.5;" x="221.4" xlink:href="#m15d6ad32e5" y="252"/>
      </g>
     </g>
     <g id="line2d_12">
      <g>
       <use style="stroke:#000000;stroke-width:0.5;" x="221.4" xlink:href="#m16d379aaea" y="28.8"/>
      </g>
     </g>
     <g id="text_4">
      <!-- 300 -->
      <defs>
       <path d="M 40.578125 39.3125 
Q 47.65625 37.796875 51.625 33 
Q 55.609375 28.21875 55.609375 21.1875 
Q 55.609375 10.40625 48.1875 4.484375 
Q 40.765625 -1.421875 27.09375 -1.421875 
Q 22.515625 -1.421875 17.65625 -0.515625 
Q 12.796875 0.390625 7.625 2.203125 
L 7.625 11.71875 
Q 11.71875 9.328125 16.59375 8.109375 
Q 21.484375 6.890625 26.8125 6.890625 
Q 36.078125 6.890625 40.9375 10.546875 
Q 45.796875 14.203125 45.796875 21.1875 
Q 45.796875 27.640625 41.28125 31.265625 
Q 36.765625 34.90625 28.71875 34.90625 
L 20.21875 34.90625 
L 20.21875 43.015625 
L 29.109375 43.015625 
Q 36.375 43.015625 40.234375 45.921875 
Q 44.09375 48.828125 44.09375 54.296875 
Q 44.09375 59.90625 40.109375 62.90625 
Q 36.140625 65.921875 28.71875 65.921875 
Q 24.65625 65.921875 20.015625 65.03125 
Q 15.375 64.15625 9.8125 62.3125 
L 9.8125 71.09375 
Q 15.4375 72.65625 20.34375 73.4375 
Q 25.25 74.21875 29.59375 74.21875 
Q 40.828125 74.21875 47.359375 69.109375 
Q 53.90625 64.015625 53.90625 55.328125 
Q 53.90625 49.265625 50.4375 45.09375 
Q 46.96875 40.921875 40.578125 39.3125 
z
" id="DejaVuSans-33"/>
      </defs>
      <g transform="translate(211.85625 263.598437)scale(0.1 -0.1)">
       <use xlink:href="#DejaVuSans-33"/>
       <use x="63.623047" xlink:href="#DejaVuSans-30"/>
       <use x="127.246094" xlink:href="#DejaVuSans-30"/>
      </g>
     </g>
    </g>
    <g id="xtick_5">
     <g id="line2d_13">
      <path clip-path="url(#p82e12c0bf4)" d="M 277.2 252 
L 277.2 28.8 
" style="fill:none;stroke:#000000;stroke-dasharray:1,3;stroke-dashoffset:0;stroke-width:0.5;"/>
     </g>
     <g id="line2d_14">
      <g>
       <use style="stroke:#000000;stroke-width:0.5;" x="277.2" xlink:href="#m15d6ad32e5" y="252"/>
      </g>
     </g>
     <g id="line2d_15">
      <g>
       <use style="stroke:#000000;stroke-width:0.5;" x="277.2" xlink:href="#m16d379aaea" y="28.8"/>
      </g>
     </g>
     <g id="text_5">
      <!-- 400 -->
      <defs>
       <path d="M 37.796875 64.3125 
L 12.890625 25.390625 
L 37.796875 25.390625 
z
M 35.203125 72.90625 
L 47.609375 72.90625 
L 47.609375 25.390625 
L 58.015625 25.390625 
L 58.015625 17.1875 
L 47.609375 17.1875 
L 47.609375 0 
L 37.796875 0 
L 37.796875 17.1875 
L 4.890625 17.1875 
L 4.890625 26.703125 
z
" id="DejaVuSans-34"/>
      </defs>
      <g transform="translate(267.65625 263.598437)scale(0.1 -0.1)">
       <use xlink:href="#DejaVuSans-34"/>
       <use x="63.623047" xlink:href="#DejaVuSans-30"/>
       <use x="127.246094" xlink:href="#DejaVuSans-30"/>
      </g>
     </g>
    </g>
    <g id="xtick_6">
     <g id="line2d_16">
      <path clip-path="url(#p82e12c0bf4)" d="M 333 252 
L 333 28.8 
" style="fill:none;stroke:#000000;stroke-dasharray:1,3;stroke-dashoffset:0;stroke-width:0.5;"/>
     </g>
     <g id="line2d_17">
      <g>
       <use style="stroke:#000000;stroke-width:0.5;" x="333" xlink:href="#m15d6ad32e5" y="252"/>
      </g>
     </g>
     <g id="line2d_18">
      <g>
       <use style="stroke:#000000;stroke-width:0.5;" x="333" xlink:href="#m16d379aaea" y="28.8"/>
      </g>
     </g>
     <g id="text_6">
      <!-- 500 -->
      <defs>
       <path d="M 10.796875 72.90625 
L 49.515625 72.90625 
L 49.515625 64.59375 
L 19.828125 64.59375 
L 19.828125 46.734375 
Q 21.96875 47.46875 24.109375 47.828125 
Q 26.265625 48.1875 28.421875 48.1875 
Q 40.625 48.1875 47.75 41.5 
Q 54.890625 34.8125 54.890625 23.390625 
Q 54.890625 11.625 47.5625 5.09375 
Q 40.234375 -1.421875 26.90625 -1.421875 
Q 22.3125 -1.421875 17.546875 -0.640625 
Q 12.796875 0.140625 7.71875 1.703125 
L 7.71875 11.625 
Q 12.109375 9.234375 16.796875 8.0625 
Q 21.484375 6.890625 26.703125 6.890625 
Q 35.15625 6.890625 40.078125 11.328125 
Q 45.015625 15.765625 45.015625 23.390625 
Q 45.015625 31 40.078125 35.4375 
Q 35.15625 39.890625 26.703125 39.890625 
Q 22.75 39.890625 18.8125 39.015625 
Q 14.890625 38.140625 10.796875 36.28125 
z
" id="DejaVuSans-35"/>
      </defs>
      <g transform="translate(323.45625 263.598437)scale(0.1 -0.1)">
       <use xlink:href="#DejaVuSans-35"/>
       <use x="63.623047" xlink:href="#DejaVuSans-30"/>
       <use x="127.246094" xlink:href="#DejaVuSans-30"/>
      </g>
     </g>
    </g>
    <g id="xtick_7">
     <g id="line2d_19">
      <path clip-path="url(#p82e12c0bf4)" d="M 388.8 252 
L 388.8 28.8 
" style="fill:none;stroke:#000000;stroke-dasharray:1,3;stroke-dashoffset:0;stroke-width:0.5;"/>
     </g>
     <g id="line2d_20">
      <g>
       <use style="stroke:#000000;stroke-width:0.5;" x="388.8" xlink:href="#m15d6ad32e5" y="252"/>
      </g>
     </g>
     <g id="line2d_21">
      <g>
       <use style="stroke:#000000;stroke-width:0.5;" x="388.8" xlink:href="#m16d379aaea" y="28.8"/>
      </g>
     </g>
     <g id="text_7">
      <!-- 600 -->
      <defs>
       <path d="M 33.015625 40.375 
Q 26.375 40.375 22.484375 35.828125 
Q 18.609375 31.296875 18.609375 23.390625 
Q 18.609375 15.53125 22.484375 10.953125 
Q 26.375 6.390625 33.015625 6.390625 
Q 39.65625 6.390625 43.53125 10.953125 
Q 47.40625 15.53125 47.40625 23.390625 
Q 47.40625 31.296875 43.53125 35.828125 
Q 39.65625 40.375 33.015625 40.375 
z
M 52.59375 71.296875 
L 52.59375 62.3125 
Q 48.875 64.0625 45.09375 64.984375 
Q 41.3125 65.921875 37.59375 65.921875 
Q 27.828125 65.921875 22.671875 59.328125 
Q 17.53125 52.734375 16.796875 39.40625 
Q 19.671875 43.65625 24.015625 45.921875 
Q 28.375 48.1875 33.59375 48.1875 
Q 44.578125 48.1875 50.953125 41.515625 
Q 57.328125 34.859375 57.328125 23.390625 
Q 57.328125 12.15625 50.6875 5.359375 
Q 44.046875 -1.421875 33.015625 -1.421875 
Q 20.359375 -1.421875 13.671875 8.265625 
Q 6.984375 17.96875 6.984375 36.375 
Q 6.984375 53.65625 15.1875 63.9375 
Q 23.390625 74.21875 37.203125 74.21875 
Q 40.921875 74.21875 44.703125 73.484375 
Q 48.484375 72.75 52.59375 71.296875 
z
" id="DejaVuSans-36"/>
      </defs>
      <g transform="translate(379.25625 263.598437)scale(0.1 -0.1)">
       <use xlink:href="#DejaVuSans-36"/>
       <use x="63.623047" xlink:href="#DejaVuSans-30"/>
       <use x="127.246094" xlink:href="#DejaVuSans-30"/>
      </g>
     </g>
    </g>
    <g id="text_8">
     <!-- RTT (ms) -->
     <defs>
      <path d="M 44.390625 34.1875 
Q 47.5625 33.109375 50.5625 29.59375 
Q 53.5625 26.078125 56.59375 19.921875 
L 66.609375 0 
L 56 0 
L 46.6875 18.703125 
Q 43.0625 26.03125 39.671875 28.421875 
Q 36.28125 30.8125 30.421875 30.8125 
L 19.671875 30.8125 
L 19.671875 0 
L 9.8125 0 
L 9.8125 72.90625 
L 32.078125 72.90625 
Q 44.578125 72.90625 50.734375 67.671875 
Q 56.890625 62.453125 56.890625 51.90625 
Q 56.890625 45.015625 53.6875 40.46875 
Q 50.484375 35.9375 44.390625 34.1875 
z
M 19.671875 64.796875 
L 19.671875 38.921875 
L 32.078125 38.921875 
Q 39.203125 38.921875 42.84375 42.21875 
Q 46.484375 45.515625 46.484375 51.90625 
Q 46.484375 58.296875 42.84375 61.546875 
Q 39.203125 64.796875 32.078125 64.796875 
z
" id="DejaVuSans-52"/>
      <path d="M -0.296875 72.90625 
L 61.375 72.90625 
L 61.375 64.59375 
L 35.5 64.59375 
L 35.5 0 
L 25.59375 0 
L 25.59375 64.59375 
L -0.296875 64.59375 
z
" id="DejaVuSans-54"/>
      <path id="DejaVuSans-20"/>
      <path d="M 31 75.875 
Q 24.46875 64.65625 21.28125 53.65625 
Q 18.109375 42.671875 18.109375 31.390625 
Q 18.109375 20.125 21.3125 9.0625 
Q 24.515625 -2 31 -13.1875 
L 23.1875 -13.1875 
Q 15.875 -1.703125 12.234375 9.375 
Q 8.59375 20.453125 8.59375 31.390625 
Q 8.59375 42.28125 12.203125 53.3125 
Q 15.828125 64.359375 23.1875 75.875 
z
" id="DejaVuSans-28"/>
      <path d="M 52 44.1875 
Q 55.375 50.25 60.0625 53.125 
Q 64.75 56 71.09375 56 
Q 79.640625 56 84.28125 50.015625 
Q 88.921875 44.046875 88.921875 33.015625 
L 88.921875 0 
L 79.890625 0 
L 79.890625 32.71875 
Q 79.890625 40.578125 77.09375 44.375 
Q 74.3125 48.1875 68.609375 48.1875 
Q 61.625 48.1875 57.5625 43.546875 
Q 53.515625 38.921875 53.515625 30.90625 
L 53.515625 0 
L 44.484375 0 
L 44.484375 32.71875 
Q 44.484375 40.625 41.703125 44.40625 
Q 38.921875 48.1875 33.109375 48.1875 
Q 26.21875 48.1875 22.15625 43.53125 
Q 18.109375 38.875 18.109375 30.90625 
L 18.109375 0 
L 9.078125 0 
L 9.078125 54.6875 
L 18.109375 54.6875 
L 18.109375 46.1875 
Q 21.1875 51.21875 25.484375 53.609375 
Q 29.78125 56 35.6875 56 
Q 41.65625 56 45.828125 52.96875 
Q 50 49.953125 52 44.1875 
z
" id="DejaVuSans-6d"/>
      <path d="M 44.28125 53.078125 
L 44.28125 44.578125 
Q 40.484375 46.53125 36.375 47.5 
Q 32.28125 48.484375 27.875 48.484375 
Q 21.1875 48.484375 17.84375 46.4375 
Q 14.5 44.390625 14.5 40.28125 
Q 14.5 37.15625 16.890625 35.375 
Q 19.28125 33.59375 26.515625 31.984375 
L 29.59375 31.296875 
Q 39.15625 29.25 43.1875 25.515625 
Q 47.21875 21.78125 47.21875 15.09375 
Q 47.21875 7.46875 41.1875 3.015625 
Q 35.15625 -1.421875 24.609375 -1.421875 
Q 20.21875 -1.421875 15.453125 -0.5625 
Q 10.6875 0.296875 5.421875 2 
L 5.421875 11.28125 
Q 10.40625 8.6875 15.234375 7.390625 
Q 20.0625 6.109375 24.8125 6.109375 
Q 31.15625 6.109375 34.5625 8.28125 
Q 37.984375 10.453125 37.984375 14.40625 
Q 37.984375 18.0625 35.515625 20.015625 
Q 33.0625 21.96875 24.703125 23.78125 
L 21.578125 24.515625 
Q 13.234375 26.265625 9.515625 29.90625 
Q 5.8125 33.546875 5.8125 39.890625 
Q 5.8125 47.609375 11.28125 51.796875 
Q 16.75 56 26.8125 56 
Q 31.78125 56 36.171875 55.265625 
Q 40.578125 54.546875 44.28125 53.078125 
z
" id="DejaVuSans-73"/>
      <path d="M 8.015625 75.875 
L 15.828125 75.875 
Q 23.140625 64.359375 26.78125 53.3125 
Q 30.421875 42.28125 30.421875 31.390625 
Q 30.421875 20.453125 26.78125 9.375 
Q 23.140625 -1.703125 15.828125 -13.1875 
L 8.015625 -13.1875 
Q 14.5 -2 17.703125 9.0625 
Q 20.90625 20.125 20.90625 31.390625 
Q 20.90625 42.671875 17.703125 53.65625 
Q 14.5 64.65625 8.015625 75.875 
z
" id="DejaVuSans-29"/>
     </defs>
     <g transform="translate(198.858594 278.276563)scale(0.1 -0.1)">
      <use xlink:href="#DejaVuSans-52"/>
      <use x="69.373047" xlink:href="#DejaVuSans-54"/>
      <use x="130.441406" xlink:href="#DejaVuSans-54"/>
      <use x="191.525391" xlink:href="#DejaVuSans-20"/>
      <use x="223.3125" xlink:href="#DejaVuSans-28"/>
      <use x="262.326172" xlink:href="#DejaVuSans-6d"/>
      <use x="359.738281" xlink:href="#DejaVuSans-73"/>
      <use x="411.837891" xlink:href="#DejaVuSans-29"/>
     </g>
    </g>
   </g>
   <g id="matplotlib.axis_2">
    <g id="ytick_1">
     <g id="line2d_22">
      <path clip-path="url(#p82e12c0bf4)" d="M 54 252 
L 388.8 252 
" style="fill:none;stroke:#000000;stroke-dasharray:1,3;stroke-dashoffset:0;stroke-width:0.5;"/>
     </g>
     <g id="line2d_23">
      <defs>
       <path d="M 0 0 
L 4 0 
" id="m5904d0eb40" style="stroke:#000000;stroke-width:0.5;"/>
      </defs>
      <g>
       <use style="stroke:#000000;stroke-width:0.5;" x="54" xlink:href="#m5904d0eb40" y="252"/>
      </g>
     </g>
     <g id="line2d_24">
      <defs>
       <path d="M 0 0 
L -4 0 
" id="mb35c11ffa2" style="stroke:#000000;stroke-width:0.5;"/>
      </defs>
      <g>
       <use style="stroke:#000000;stroke-width:0.5;" x="388.8" xlink:href="#mb35c11ffa2" y="252"/>
      </g>
     </g>
     <g id="text_9">
      <!-- 0.0 -->
      <defs>
       <path d="M 10.6875 12.40625 
L 21 12.40625 
L 21 0 
L 10.6875 0 
z
" id="DejaVuSans-2e"/>
      </defs>
      <g transform="translate(34.096875 254.759375)scale(0.1 -0.1)">
       <use xlink:href="#DejaVuSans-30"/>
       <use x="63.623047" xlink:href="#DejaVuSans-2e"/>
       <use x="95.410156" xlink:href="#DejaVuSans-30"/>
      </g>
     </g>
    </g>
    <g id="ytick_2">
     <g id="line2d_25">
      <path clip-path="url(#p82e12c0bf4)" d="M 54 207.36 
L 388.8 207.36 
" style="fill:none;stroke:#000000;stroke-dasharray:1,3;stroke-dashoffset:0;stroke-width:0.5;"/>
     </g>
     <g id="line2d_26">
      <g>
       <use style="stroke:#000000;stroke-width:0.5;" x="54" xlink:href="#m5904d0eb40" y="207.36"/>
      </g>
     </g>
     <g id="line2d_27">
      <g>
       <use style="stroke:#000000;stroke-width:0.5;" x="388.8" xlink:href="#mb35c11ffa2" y="207.36"/>
      </g>
     </g>
     <g id="text_10">
      <!-- 0.2 -->
      <g transform="translate(34.096875 210.119375)scale(0.1 -0.1)">
       <use xlink:href="#DejaVuSans-30"/>
       <use x="63.623047" xlink:href="#DejaVuSans-2e"/>
       <use x="95.410156" xlink:href="#DejaVuSans-32"/>
      </g>
     </g>
    </g>
    <g id="ytick_3">
     <g id="line2d_28">
      <path clip-path="url(#p82e12c0bf4)" d="M 54 162.72 
L 388.8 162.72 
" style="fill:none;stroke:#000000;stroke-dasharray:1,3;stroke-dashoffset:0;stroke-width:0.5;"/>
     </g>
     <g id="line2d_29">
      <g>
       <use style="stroke:#000000;stroke-width:0.5;" x="54" xlink:href="#m5904d0eb40" y="162.72"/>
      </g>
     </g>
     <g id="line2d_30">
      <g>
       <use style="stroke:#000000;stroke-width:0.5;" x="388.8" xlink:href="#mb35c11ffa2" y="162.72"/>
      </g>
     </g>
     <g id="text_11">
      <!-- 0.4 -->
      <g transform="translate(34.096875 165.479375)scale(0.1 -0.1)">
       <use xlink:href="#DejaVuSans-30"/>
       <use x="63.623047" xlink:href="#DejaVuSans-2e"/>
       <use x="95.410156" xlink:href="#DejaVuSans-34"/>
      </g>
     </g>
    </g>
    <g id="ytick_4">
     <g id="line2d_31">
      <path clip-path="url(#p82e12c0bf4)" d="M 54 118.08 
L 388.8 118.08 
" style="fill:none;stroke:#000000;stroke-dasharray:1,3;stroke-dashoffset:0;stroke-width:0.5;"/>
     </g>
     <g id="line2d_32">
      <g>
       <use style="stroke:#000000;stroke-width:0.5;" x="54" xlink:href="#m5904d0eb40" y="118.08"/>
      </g>
     </g>
     <g id="line2d_33">
      <g>
       <use style="stroke:#000000;stroke-width:0.5;" x="388.8" xlink:href="#mb35c11ffa2" y="118.08"/>
      </g>
     </g>
     <g id="text_12">
      <!-- 0.6 -->
      <g transform="translate(34.096875 120.839375)scale(0.1 -0.1)">
       <use xlink:href="#DejaVuSans-30"/>
       <use x="63.623047" xlink:href="#DejaVuSans-2e"/>
       <use x="95.410156" xlink:href="#DejaVuSans-36"/>
      </g>
     </g>
    </g>
    <g id="ytick_5">
     <g id="line2d_34">
      <path clip-path="url(#p82e12c0bf4)" d="M 54 73.44 
L 388.8 73.44 
" style="fill:none;stroke:#000000;stroke-dasharray:1,3;stroke-dashoffset:0;stroke-width:0.5;"/>
     </g>
     <g id="line2d_35">
      <g>
       <use style="stroke:#000000;stroke-width:0.5;" x="54" xlink:href="#m5904d0eb40" y="73.44"/>
      </g>
     </g>
     <g id="line2d_36">
      <g>
       <use style="stroke:#000000;stroke-width:0.5;" x="388.8" xlink:href="#mb35c11ffa2" y="73.44"/>
      </g>
     </g>
     <g id="text_13">
      <!-- 0.8 -->
      <defs>
       <path d="M 31.78125 34.625 
Q 24.75 34.625 20.71875 30.859375 
Q 16.703125 27.09375 16.703125 20.515625 
Q 16.703125 13.921875 20.71875 10.15625 
Q 24.75 6.390625 31.78125 6.390625 
Q 38.8125 6.390625 42.859375 10.171875 
Q 46.921875 13.96875 46.921875 20.515625 
Q 46.921875 27.09375 42.890625 30.859375 
Q 38.875 34.625 31.78125 34.625 
z
M 21.921875 38.8125 
Q 15.578125 40.375 12.03125 44.71875 
Q 8.5 49.078125 8.5 55.328125 
Q 8.5 64.0625 14.71875 69.140625 
Q 20.953125 74.21875 31.78125 74.21875 
Q 42.671875 74.21875 48.875 69.140625 
Q 55.078125 64.0625 55.078125 55.328125 
Q 55.078125 49.078125 51.53125 44.71875 
Q 48 40.375 41.703125 38.8125 
Q 48.828125 37.15625 52.796875 32.3125 
Q 56.78125 27.484375 56.78125 20.515625 
Q 56.78125 9.90625 50.3125 4.234375 
Q 43.84375 -1.421875 31.78125 -1.421875 
Q 19.734375 -1.421875 13.25 4.234375 
Q 6.78125 9.90625 6.78125 20.515625 
Q 6.78125 27.484375 10.78125 32.3125 
Q 14.796875 37.15625 21.921875 38.8125 
z
M 18.3125 54.390625 
Q 18.3125 48.734375 21.84375 45.5625 
Q 25.390625 42.390625 31.78125 42.390625 
Q 38.140625 42.390625 41.71875 45.5625 
Q 45.3125 48.734375 45.3125 54.390625 
Q 45.3125 60.0625 41.71875 63.234375 
Q 38.140625 66.40625 31.78125 66.40625 
Q 25.390625 66.40625 21.84375 63.234375 
Q 18.3125 60.0625 18.3125 54.390625 
z
" id="DejaVuSans-38"/>
      </defs>
      <g transform="translate(34.096875 76.199375)scale(0.1 -0.1)">
       <use xlink:href="#DejaVuSans-30"/>
       <use x="63.623047" xlink:href="#DejaVuSans-2e"/>
       <use x="95.410156" xlink:href="#DejaVuSans-38"/>
      </g>
     </g>
    </g>
    <g id="ytick_6">
     <g id="line2d_37">
      <path clip-path="url(#p82e12c0bf4)" d="M 54 28.8 
L 388.8 28.8 
" style="fill:none;stroke:#000000;stroke-dasharray:1,3;stroke-dashoffset:0;stroke-width:0.5;"/>
     </g>
     <g id="line2d_38">
      <g>
       <use style="stroke:#000000;stroke-width:0.5;" x="54" xlink:href="#m5904d0eb40" y="28.8"/>
      </g>
     </g>
     <g id="line2d_39">
      <g>
       <use style="stroke:#000000;stroke-width:0.5;" x="388.8" xlink:href="#mb35c11ffa2" y="28.8"/>
      </g>
     </g>
     <g id="text_14">
      <!-- 1.0 -->
      <g transform="translate(34.096875 31.559375)scale(0.1 -0.1)">
       <use xlink:href="#DejaVuSans-31"/>
       <use x="63.623047" xlink:href="#DejaVuSans-2e"/>
       <use x="95.410156" xlink:href="#DejaVuSans-30"/>
      </g>
     </g>
    </g>
    <g id="text_15">
     <!-- CDF -->
     <defs>
      <path d="M 64.40625 67.28125 
L 64.40625 56.890625 
Q 59.421875 61.53125 53.78125 63.8125 
Q 48.140625 66.109375 41.796875 66.109375 
Q 29.296875 66.109375 22.65625 58.46875 
Q 16.015625 50.828125 16.015625 36.375 
Q 16.015625 21.96875 22.65625 14.328125 
Q 29.296875 6.6875 41.796875 6.6875 
Q 48.140625 6.6875 53.78125 8.984375 
Q 59.421875 11.28125 64.40625 15.921875 
L 64.40625 5.609375 
Q 59.234375 2.09375 53.4375 0.328125 
Q 47.65625 -1.421875 41.21875 -1.421875 
Q 24.65625 -1.421875 15.125 8.703125 
Q 5.609375 18.84375 5.609375 36.375 
Q 5.609375 53.953125 15.125 64.078125 
Q 24.65625 74.21875 41.21875 74.21875 
Q 47.75 74.21875 53.53125 72.484375 
Q 59.328125 70.75 64.40625 67.28125 
z
" id="DejaVuSans-43"/>
      <path d="M 19.671875 64.796875 
L 19.671875 8.109375 
L 31.59375 8.109375 
Q 46.6875 8.109375 53.6875 14.9375 
Q 60.6875 21.78125 60.6875 36.53125 
Q 60.6875 51.171875 53.6875 57.984375 
Q 46.6875 64.796875 31.59375 64.796875 
z
M 9.8125 72.90625 
L 30.078125 72.90625 
Q 51.265625 72.90625 61.171875 64.09375 
Q 71.09375 55.28125 71.09375 36.53125 
Q 71.09375 17.671875 61.125 8.828125 
Q 51.171875 0 30.078125 0 
L 9.8125 0 
z
" id="DejaVuSans-44"/>
      <path d="M 9.8125 72.90625 
L 51.703125 72.90625 
L 51.703125 64.59375 
L 19.671875 64.59375 
L 19.671875 43.109375 
L 48.578125 43.109375 
L 48.578125 34.8125 
L 19.671875 34.8125 
L 19.671875 0 
L 9.8125 0 
z
" id="DejaVuSans-46"/>
     </defs>
     <g transform="translate(27.017187 150.617188)rotate(-90)scale(0.1 -0.1)">
      <use xlink:href="#DejaVuSans-43"/>
      <use x="69.824219" xlink:href="#DejaVuSans-44"/>
      <use x="146.826172" xlink:href="#DejaVuSans-46"/>
     </g>
    </g>
   </g>
   <g id="text_16">
    <!-- RTT for websites using CDN vs NO CDN -->
    <defs>
     <path d="M 37.109375 75.984375 
L 37.109375 68.5 
L 28.515625 68.5 
Q 23.6875 68.5 21.796875 66.546875 
Q 19.921875 64.59375 19.921875 59.515625 
L 19.921875 54.6875 
L 34.71875 54.6875 
L 34.71875 47.703125 
L 19.921875 47.703125 
L 19.921875 0 
L 10.890625 0 
L 10.890625 47.703125 
L 2.296875 47.703125 
L 2.296875 54.6875 
L 10.890625 54.6875 
L 10.890625 58.5 
Q 10.890625 67.625 15.140625 71.796875 
Q 19.390625 75.984375 28.609375 75.984375 
z
" id="DejaVuSans-66"/>
     <path d="M 30.609375 48.390625 
Q 23.390625 48.390625 19.1875 42.75 
Q 14.984375 37.109375 14.984375 27.296875 
Q 14.984375 17.484375 19.15625 11.84375 
Q 23.34375 6.203125 30.609375 6.203125 
Q 37.796875 6.203125 41.984375 11.859375 
Q 46.1875 17.53125 46.1875 27.296875 
Q 46.1875 37.015625 41.984375 42.703125 
Q 37.796875 48.390625 30.609375 48.390625 
z
M 30.609375 56 
Q 42.328125 56 49.015625 48.375 
Q 55.71875 40.765625 55.71875 27.296875 
Q 55.71875 13.875 49.015625 6.21875 
Q 42.328125 -1.421875 30.609375 -1.421875 
Q 18.84375 -1.421875 12.171875 6.21875 
Q 5.515625 13.875 5.515625 27.296875 
Q 5.515625 40.765625 12.171875 48.375 
Q 18.84375 56 30.609375 56 
z
" id="DejaVuSans-6f"/>
     <path d="M 41.109375 46.296875 
Q 39.59375 47.171875 37.8125 47.578125 
Q 36.03125 48 33.890625 48 
Q 26.265625 48 22.1875 43.046875 
Q 18.109375 38.09375 18.109375 28.8125 
L 18.109375 0 
L 9.078125 0 
L 9.078125 54.6875 
L 18.109375 54.6875 
L 18.109375 46.1875 
Q 20.953125 51.171875 25.484375 53.578125 
Q 30.03125 56 36.53125 56 
Q 37.453125 56 38.578125 55.875 
Q 39.703125 55.765625 41.0625 55.515625 
z
" id="DejaVuSans-72"/>
     <path d="M 4.203125 54.6875 
L 13.1875 54.6875 
L 24.421875 12.015625 
L 35.59375 54.6875 
L 46.1875 54.6875 
L 57.421875 12.015625 
L 68.609375 54.6875 
L 77.59375 54.6875 
L 63.28125 0 
L 52.6875 0 
L 40.921875 44.828125 
L 29.109375 0 
L 18.5 0 
z
" id="DejaVuSans-77"/>
     <path d="M 56.203125 29.59375 
L 56.203125 25.203125 
L 14.890625 25.203125 
Q 15.484375 15.921875 20.484375 11.0625 
Q 25.484375 6.203125 34.421875 6.203125 
Q 39.59375 6.203125 44.453125 7.46875 
Q 49.3125 8.734375 54.109375 11.28125 
L 54.109375 2.78125 
Q 49.265625 0.734375 44.1875 -0.34375 
Q 39.109375 -1.421875 33.890625 -1.421875 
Q 20.796875 -1.421875 13.15625 6.1875 
Q 5.515625 13.8125 5.515625 26.8125 
Q 5.515625 40.234375 12.765625 48.109375 
Q 20.015625 56 32.328125 56 
Q 43.359375 56 49.78125 48.890625 
Q 56.203125 41.796875 56.203125 29.59375 
z
M 47.21875 32.234375 
Q 47.125 39.59375 43.09375 43.984375 
Q 39.0625 48.390625 32.421875 48.390625 
Q 24.90625 48.390625 20.390625 44.140625 
Q 15.875 39.890625 15.1875 32.171875 
z
" id="DejaVuSans-65"/>
     <path d="M 48.6875 27.296875 
Q 48.6875 37.203125 44.609375 42.84375 
Q 40.53125 48.484375 33.40625 48.484375 
Q 26.265625 48.484375 22.1875 42.84375 
Q 18.109375 37.203125 18.109375 27.296875 
Q 18.109375 17.390625 22.1875 11.75 
Q 26.265625 6.109375 33.40625 6.109375 
Q 40.53125 6.109375 44.609375 11.75 
Q 48.6875 17.390625 48.6875 27.296875 
z
M 18.109375 46.390625 
Q 20.953125 51.265625 25.265625 53.625 
Q 29.59375 56 35.59375 56 
Q 45.5625 56 51.78125 48.09375 
Q 58.015625 40.1875 58.015625 27.296875 
Q 58.015625 14.40625 51.78125 6.484375 
Q 45.5625 -1.421875 35.59375 -1.421875 
Q 29.59375 -1.421875 25.265625 0.953125 
Q 20.953125 3.328125 18.109375 8.203125 
L 18.109375 0 
L 9.078125 0 
L 9.078125 75.984375 
L 18.109375 75.984375 
z
" id="DejaVuSans-62"/>
     <path d="M 9.421875 54.6875 
L 18.40625 54.6875 
L 18.40625 0 
L 9.421875 0 
z
M 9.421875 75.984375 
L 18.40625 75.984375 
L 18.40625 64.59375 
L 9.421875 64.59375 
z
" id="DejaVuSans-69"/>
     <path d="M 18.3125 70.21875 
L 18.3125 54.6875 
L 36.8125 54.6875 
L 36.8125 47.703125 
L 18.3125 47.703125 
L 18.3125 18.015625 
Q 18.3125 11.328125 20.140625 9.421875 
Q 21.96875 7.515625 27.59375 7.515625 
L 36.8125 7.515625 
L 36.8125 0 
L 27.59375 0 
Q 17.1875 0 13.234375 3.875 
Q 9.28125 7.765625 9.28125 18.015625 
L 9.28125 47.703125 
L 2.6875 47.703125 
L 2.6875 54.6875 
L 9.28125 54.6875 
L 9.28125 70.21875 
z
" id="DejaVuSans-74"/>
     <path d="M 8.5 21.578125 
L 8.5 54.6875 
L 17.484375 54.6875 
L 17.484375 21.921875 
Q 17.484375 14.15625 20.5 10.265625 
Q 23.53125 6.390625 29.59375 6.390625 
Q 36.859375 6.390625 41.078125 11.03125 
Q 45.3125 15.671875 45.3125 23.6875 
L 45.3125 54.6875 
L 54.296875 54.6875 
L 54.296875 0 
L 45.3125 0 
L 45.3125 8.40625 
Q 42.046875 3.421875 37.71875 1 
Q 33.40625 -1.421875 27.6875 -1.421875 
Q 18.265625 -1.421875 13.375 4.4375 
Q 8.5 10.296875 8.5 21.578125 
z
M 31.109375 56 
z
" id="DejaVuSans-75"/>
     <path d="M 54.890625 33.015625 
L 54.890625 0 
L 45.90625 0 
L 45.90625 32.71875 
Q 45.90625 40.484375 42.875 44.328125 
Q 39.84375 48.1875 33.796875 48.1875 
Q 26.515625 48.1875 22.3125 43.546875 
Q 18.109375 38.921875 18.109375 30.90625 
L 18.109375 0 
L 9.078125 0 
L 9.078125 54.6875 
L 18.109375 54.6875 
L 18.109375 46.1875 
Q 21.34375 51.125 25.703125 53.5625 
Q 30.078125 56 35.796875 56 
Q 45.21875 56 50.046875 50.171875 
Q 54.890625 44.34375 54.890625 33.015625 
z
" id="DejaVuSans-6e"/>
     <path d="M 45.40625 27.984375 
Q 45.40625 37.75 41.375 43.109375 
Q 37.359375 48.484375 30.078125 48.484375 
Q 22.859375 48.484375 18.828125 43.109375 
Q 14.796875 37.75 14.796875 27.984375 
Q 14.796875 18.265625 18.828125 12.890625 
Q 22.859375 7.515625 30.078125 7.515625 
Q 37.359375 7.515625 41.375 12.890625 
Q 45.40625 18.265625 45.40625 27.984375 
z
M 54.390625 6.78125 
Q 54.390625 -7.171875 48.1875 -13.984375 
Q 42 -20.796875 29.203125 -20.796875 
Q 24.46875 -20.796875 20.265625 -20.09375 
Q 16.0625 -19.390625 12.109375 -17.921875 
L 12.109375 -9.1875 
Q 16.0625 -11.328125 19.921875 -12.34375 
Q 23.78125 -13.375 27.78125 -13.375 
Q 36.625 -13.375 41.015625 -8.765625 
Q 45.40625 -4.15625 45.40625 5.171875 
L 45.40625 9.625 
Q 42.625 4.78125 38.28125 2.390625 
Q 33.9375 0 27.875 0 
Q 17.828125 0 11.671875 7.65625 
Q 5.515625 15.328125 5.515625 27.984375 
Q 5.515625 40.671875 11.671875 48.328125 
Q 17.828125 56 27.875 56 
Q 33.9375 56 38.28125 53.609375 
Q 42.625 51.21875 45.40625 46.390625 
L 45.40625 54.6875 
L 54.390625 54.6875 
z
" id="DejaVuSans-67"/>
     <path d="M 9.8125 72.90625 
L 23.09375 72.90625 
L 55.421875 11.921875 
L 55.421875 72.90625 
L 64.984375 72.90625 
L 64.984375 0 
L 51.703125 0 
L 19.390625 60.984375 
L 19.390625 0 
L 9.8125 0 
z
" id="DejaVuSans-4e"/>
     <path d="M 2.984375 54.6875 
L 12.5 54.6875 
L 29.59375 8.796875 
L 46.6875 54.6875 
L 56.203125 54.6875 
L 35.6875 0 
L 23.484375 0 
z
" id="DejaVuSans-76"/>
     <path d="M 39.40625 66.21875 
Q 28.65625 66.21875 22.328125 58.203125 
Q 16.015625 50.203125 16.015625 36.375 
Q 16.015625 22.609375 22.328125 14.59375 
Q 28.65625 6.59375 39.40625 6.59375 
Q 50.140625 6.59375 56.421875 14.59375 
Q 62.703125 22.609375 62.703125 36.375 
Q 62.703125 50.203125 56.421875 58.203125 
Q 50.140625 66.21875 39.40625 66.21875 
z
M 39.40625 74.21875 
Q 54.734375 74.21875 63.90625 63.9375 
Q 73.09375 53.65625 73.09375 36.375 
Q 73.09375 19.140625 63.90625 8.859375 
Q 54.734375 -1.421875 39.40625 -1.421875 
Q 24.03125 -1.421875 14.8125 8.828125 
Q 5.609375 19.09375 5.609375 36.375 
Q 5.609375 53.65625 14.8125 63.9375 
Q 24.03125 74.21875 39.40625 74.21875 
z
" id="DejaVuSans-4f"/>
    </defs>
    <g transform="translate(103.24875 23.8)scale(0.12 -0.12)">
     <use xlink:href="#DejaVuSans-52"/>
     <use x="69.373047" xlink:href="#DejaVuSans-54"/>
     <use x="130.441406" xlink:href="#DejaVuSans-54"/>
     <use x="191.525391" xlink:href="#DejaVuSans-20"/>
     <use x="223.3125" xlink:href="#DejaVuSans-66"/>
     <use x="258.517578" xlink:href="#DejaVuSans-6f"/>
     <use x="319.699219" xlink:href="#DejaVuSans-72"/>
     <use x="360.8125" xlink:href="#DejaVuSans-20"/>
     <use x="392.599609" xlink:href="#DejaVuSans-77"/>
     <use x="474.386719" xlink:href="#DejaVuSans-65"/>
     <use x="535.910156" xlink:href="#DejaVuSans-62"/>
     <use x="599.386719" xlink:href="#DejaVuSans-73"/>
     <use x="651.486328" xlink:href="#DejaVuSans-69"/>
     <use x="679.269531" xlink:href="#DejaVuSans-74"/>
     <use x="718.478516" xlink:href="#DejaVuSans-65"/>
     <use x="780.001953" xlink:href="#DejaVuSans-73"/>
     <use x="832.101562" xlink:href="#DejaVuSans-20"/>
     <use x="863.888672" xlink:href="#DejaVuSans-75"/>
     <use x="927.267578" xlink:href="#DejaVuSans-73"/>
     <use x="979.367188" xlink:href="#DejaVuSans-69"/>
     <use x="1007.150391" xlink:href="#DejaVuSans-6e"/>
     <use x="1070.529297" xlink:href="#DejaVuSans-67"/>
     <use x="1134.005859" xlink:href="#DejaVuSans-20"/>
     <use x="1165.792969" xlink:href="#DejaVuSans-43"/>
     <use x="1235.617188" xlink:href="#DejaVuSans-44"/>
     <use x="1312.619141" xlink:href="#DejaVuSans-4e"/>
     <use x="1387.423828" xlink:href="#DejaVuSans-20"/>
     <use x="1419.210938" xlink:href="#DejaVuSans-76"/>
     <use x="1478.390625" xlink:href="#DejaVuSans-73"/>
     <use x="1530.490234" xlink:href="#DejaVuSans-20"/>
     <use x="1562.277344" xlink:href="#DejaVuSans-4e"/>
     <use x="1637.082031" xlink:href="#DejaVuSans-4f"/>
     <use x="1715.792969" xlink:href="#DejaVuSans-20"/>
     <use x="1747.580078" xlink:href="#DejaVuSans-43"/>
     <use x="1817.404297" xlink:href="#DejaVuSans-44"/>
     <use x="1894.40625" xlink:href="#DejaVuSans-4e"/>
    </g>
   </g>
   <g id="legend_1">
    <g id="patch_9">
     <path d="M 290.765625 159.81375 
L 382.8 159.81375 
L 382.8 120.98625 
L 290.765625 120.98625 
z
" style="fill:#ffffff;stroke:#000000;stroke-linejoin:miter;"/>
    </g>
    <g id="patch_10">
     <path d="M 295.565625 134.904375 
L 319.565625 134.904375 
L 319.565625 126.504375 
L 295.565625 126.504375 
z
" style="fill:none;stroke:#008000;stroke-linejoin:miter;stroke-width:2;"/>
    </g>
    <g id="text_17">
     <!-- NO CDN -->
     <g transform="translate(329.165625 134.904375)scale(0.12 -0.12)">
      <use xlink:href="#DejaVuSans-4e"/>
      <use x="74.804688" xlink:href="#DejaVuSans-4f"/>
      <use x="153.515625" xlink:href="#DejaVuSans-20"/>
      <use x="185.302734" xlink:href="#DejaVuSans-43"/>
      <use x="255.126953" xlink:href="#DejaVuSans-44"/>
      <use x="332.128906" xlink:href="#DejaVuSans-4e"/>
     </g>
    </g>
    <g id="patch_11">
     <path d="M 295.565625 152.518125 
L 319.565625 152.518125 
L 319.565625 144.118125 
L 295.565625 144.118125 
z
" style="fill:none;stroke:#0000ff;stroke-linejoin:miter;stroke-width:2;"/>
    </g>
    <g id="text_18">
     <!-- CDN -->
     <g transform="translate(329.165625 152.518125)scale(0.12 -0.12)">
      <use xlink:href="#DejaVuSans-43"/>
      <use x="69.824219" xlink:href="#DejaVuSans-44"/>
      <use x="146.826172" xlink:href="#DejaVuSans-4e"/>
     </g>
    </g>
   </g>
  </g>
 </g>
 <defs>
  <clipPath id="p82e12c0bf4">
   <rect height="223.2" width="334.8" x="54" y="28.8"/>
  </clipPath>
 </defs>
</svg>
